<svg width="72" height="72" viewBox="0 0 72 72" fill="none" xmlns="http://www.w3.org/2000/svg">
<path d="M18.3998 39.3H53.5998V32.7H18.3998V39.3ZM36.0251 71.2C31.1805 71.2 26.6192 70.2834 22.3415 68.45C18.0637 66.6167 14.3206 64.0959 11.1123 60.8875C7.90397 57.6792 5.38314 53.9374 3.5498 49.6622C1.71647 45.387 0.799805 40.8189 0.799805 35.9581C0.799805 31.0972 1.71647 26.5431 3.5498 22.2959C5.38314 18.0487 7.90397 14.3209 11.1123 11.1125C14.3206 7.90421 18.0624 5.38338 22.3376 3.55005C26.6129 1.71672 31.181 0.800049 36.0418 0.800049C40.9027 0.800049 45.4567 1.71672 49.704 3.55005C53.9512 5.38338 57.679 7.90421 60.8873 11.1125C64.0956 14.3209 66.6165 18.0555 68.4498 22.3164C70.2831 26.5774 71.1998 31.1302 71.1998 35.9747C71.1998 40.8194 70.2831 45.3806 68.4498 49.6584C66.6165 53.9362 64.0956 57.6792 60.8873 60.8875C57.679 64.0959 53.9443 66.6167 49.6834 68.45C45.4225 70.2834 40.8697 71.2 36.0251 71.2Z" fill="#EA3A34"/>
</svg>
