<svg width="165" height="155" viewBox="0 0 165 155" fill="none" xmlns="http://www.w3.org/2000/svg">
<g opacity="0.5">
<path d="M88.1991 125.151C120.577 125.151 146.826 98.7865 146.826 66.1507C146.826 33.5149 120.461 7.1507 88.1991 7.1507C55.8211 7.1507 29.5718 33.5149 29.5718 66.1507C29.5718 98.7865 55.8211 125.151 88.1991 125.151Z" fill="#CED8D9"/>
<path d="M154.269 47.4572C156.887 47.4572 159.01 45.3253 159.01 42.6954C159.01 40.0655 156.887 37.9336 154.269 37.9336C151.65 37.9336 149.528 40.0655 149.528 42.6954C149.528 45.3253 151.65 47.4572 154.269 47.4572Z" fill="#CED8D9"/>
<path d="M161.207 28.8747C162.995 28.8747 164.445 27.4187 164.445 25.6227C164.445 23.8267 162.995 22.3707 161.207 22.3707C159.419 22.3707 157.969 23.8267 157.969 25.6227C157.969 27.4187 159.419 28.8747 161.207 28.8747Z" fill="#CED8D9"/>
<path d="M32.2314 27.4753C34.0196 27.4753 35.4692 26.0194 35.4692 24.2233C35.4692 22.4273 34.0196 20.9714 32.2314 20.9714C30.4433 20.9714 28.9937 22.4273 28.9937 24.2233C28.9937 26.0194 30.4433 27.4753 32.2314 27.4753Z" fill="#CED8D9"/>
<path d="M12.4579 90.1921C15.7788 90.1921 18.4709 87.4882 18.4709 84.1527C18.4709 80.8173 15.7788 78.1133 12.4579 78.1133C9.13696 78.1133 6.44482 80.8173 6.44482 84.1527C6.44482 87.4882 9.13696 90.1921 12.4579 90.1921Z" fill="#CED8D9"/>
<g filter="url(#filter0_d_4440_3742)">
<path d="M135.928 121.862H37.8466C35.9359 121.862 34.3682 120.287 34.3682 118.368V94.3065C34.3682 92.3875 35.9359 90.8129 37.8466 90.8129H135.928C137.838 90.8129 139.406 92.3875 139.406 94.3065V118.368C139.406 120.287 137.838 121.862 135.928 121.862Z" fill="white"/>
</g>
<path d="M119.662 102.475H65.0368C63.861 102.475 62.9302 101.757 62.9302 100.851C62.9302 99.9446 63.861 99.2271 65.0368 99.2271H119.662C120.838 99.2271 121.769 99.9446 121.769 100.851C121.769 101.757 120.838 102.475 119.662 102.475Z" fill="#CED8D9"/>
<path d="M100.066 112.365H65.0368C63.861 112.365 62.9302 111.648 62.9302 110.741C62.9302 109.835 63.861 109.118 65.0368 109.118H100.066C101.242 109.118 102.172 109.835 102.172 110.741C102.172 111.648 101.242 112.365 100.066 112.365Z" fill="#CED8D9"/>
<path d="M48.8699 115.071C53.6861 115.071 57.5904 111.15 57.5904 106.313C57.5904 101.475 53.6861 97.5541 48.8699 97.5541C44.0537 97.5541 40.1494 101.475 40.1494 106.313C40.1494 111.15 44.0537 115.071 48.8699 115.071Z" fill="#54777A"/>
<path fill-rule="evenodd" clip-rule="evenodd" d="M52.3137 104.316L46.8267 109.778L45.4268 108.359L50.9138 102.897L52.3137 104.316Z" fill="white"/>
<path fill-rule="evenodd" clip-rule="evenodd" d="M46.8267 102.897L52.3137 108.359L50.9138 109.778L45.4268 104.316L46.8267 102.897Z" fill="white"/>
<g filter="url(#filter1_d_4440_3742)">
<path d="M139.223 42.6143H41.142C39.2313 42.6143 37.6636 41.0398 37.6636 39.1207V15.059C37.6636 13.14 39.2313 11.5654 41.142 11.5654H139.223C141.134 11.5654 142.701 13.14 142.701 15.059V39.1207C142.701 41.0398 141.134 42.6143 139.223 42.6143Z" fill="white"/>
</g>
<path d="M122.958 23.2271H68.3322C67.1564 23.2271 66.2256 22.5096 66.2256 21.6033C66.2256 20.697 67.1564 19.9795 68.3322 19.9795H122.958C124.134 19.9795 125.064 20.697 125.064 21.6033C125.064 22.5096 124.134 23.2271 122.958 23.2271Z" fill="#CED8D9"/>
<path d="M103.361 33.1175H68.3322C67.1564 33.1175 66.2256 32.4 66.2256 31.4937C66.2256 30.5874 67.1564 29.8699 68.3322 29.8699H103.361C104.537 29.8699 105.468 30.5874 105.468 31.4937C105.468 32.4 104.537 33.1175 103.361 33.1175Z" fill="#CED8D9"/>
<path d="M52.1648 35.8239C56.981 35.8239 60.8853 31.9025 60.8853 27.0652C60.8853 22.228 56.981 18.3066 52.1648 18.3066C47.3486 18.3066 43.4443 22.228 43.4443 27.0652C43.4443 31.9025 47.3486 35.8239 52.1648 35.8239Z" fill="#54777A"/>
<path fill-rule="evenodd" clip-rule="evenodd" d="M55.6087 25.0683L50.1216 30.5302L48.7217 29.1115L54.2087 23.6496L55.6087 25.0683Z" fill="white"/>
<path fill-rule="evenodd" clip-rule="evenodd" d="M50.1216 23.6496L55.6087 29.1115L54.2087 30.5302L48.7217 25.0683L50.1216 23.6496Z" fill="white"/>
<g filter="url(#filter2_d_4440_3742)">
<path d="M124.169 82.052H26.0394C24.1288 82.052 22.561 80.4774 22.561 78.5584V54.4967C22.561 52.5776 24.1288 51.0031 26.0394 51.0031H124.12C126.031 51.0031 127.599 52.5776 127.599 54.4967V78.5584C127.648 80.5266 126.08 82.052 124.169 82.052Z" fill="white"/>
</g>
<path d="M37.1116 75.3109C41.9278 75.3109 45.8321 71.3895 45.8321 66.5522C45.8321 61.715 41.9278 57.7936 37.1116 57.7936C32.2954 57.7936 28.3911 61.715 28.3911 66.5522C28.3911 71.3895 32.2954 75.3109 37.1116 75.3109Z" fill="#54777A"/>
<path fill-rule="evenodd" clip-rule="evenodd" d="M41.9298 64.5028L35.7396 70.7201L32.293 67.2583L33.6992 65.8459L35.7396 67.8953L40.5235 63.0904L41.9298 64.5028Z" fill="white"/>
<path d="M107.905 62.6649H53.279C52.1032 62.6649 51.1724 61.9475 51.1724 61.0412C51.1724 60.1348 52.1032 59.4174 53.279 59.4174H107.905C109.08 59.4174 110.011 60.1348 110.011 61.0412C110.011 61.9475 109.031 62.6649 107.905 62.6649Z" fill="#CED8D9"/>
<path d="M88.3079 72.6045H53.279C52.1032 72.6045 51.1724 71.887 51.1724 70.9807C51.1724 70.0744 52.1032 69.3569 53.279 69.3569H88.3079C89.4837 69.3569 90.4145 70.0744 90.4145 70.9807C90.3656 71.887 89.4347 72.6045 88.3079 72.6045Z" fill="#CED8D9"/>
</g>
<defs>
<filter id="filter0_d_4440_3742" x="12.3682" y="79.8129" width="149.038" height="75.0489" filterUnits="userSpaceOnUse" color-interpolation-filters="sRGB">
<feFlood flood-opacity="0" result="BackgroundImageFix"/>
<feColorMatrix in="SourceAlpha" type="matrix" values="0 0 0 0 0 0 0 0 0 0 0 0 0 0 0 0 0 0 127 0" result="hardAlpha"/>
<feOffset dy="11"/>
<feGaussianBlur stdDeviation="11"/>
<feColorMatrix type="matrix" values="0 0 0 0 0.397708 0 0 0 0 0.47749 0 0 0 0 0.575 0 0 0 0.27 0"/>
<feBlend mode="normal" in2="BackgroundImageFix" result="effect1_dropShadow_4440_3742"/>
<feBlend mode="normal" in="SourceGraphic" in2="effect1_dropShadow_4440_3742" result="shape"/>
</filter>
<filter id="filter1_d_4440_3742" x="15.6636" y="0.56543" width="149.038" height="75.0489" filterUnits="userSpaceOnUse" color-interpolation-filters="sRGB">
<feFlood flood-opacity="0" result="BackgroundImageFix"/>
<feColorMatrix in="SourceAlpha" type="matrix" values="0 0 0 0 0 0 0 0 0 0 0 0 0 0 0 0 0 0 127 0" result="hardAlpha"/>
<feOffset dy="11"/>
<feGaussianBlur stdDeviation="11"/>
<feColorMatrix type="matrix" values="0 0 0 0 0.397708 0 0 0 0 0.47749 0 0 0 0 0.575 0 0 0 0.27 0"/>
<feBlend mode="normal" in2="BackgroundImageFix" result="effect1_dropShadow_4440_3742"/>
<feBlend mode="normal" in="SourceGraphic" in2="effect1_dropShadow_4440_3742" result="shape"/>
</filter>
<filter id="filter2_d_4440_3742" x="0.561035" y="40.0031" width="149.039" height="75.049" filterUnits="userSpaceOnUse" color-interpolation-filters="sRGB">
<feFlood flood-opacity="0" result="BackgroundImageFix"/>
<feColorMatrix in="SourceAlpha" type="matrix" values="0 0 0 0 0 0 0 0 0 0 0 0 0 0 0 0 0 0 127 0" result="hardAlpha"/>
<feOffset dy="11"/>
<feGaussianBlur stdDeviation="11"/>
<feColorMatrix type="matrix" values="0 0 0 0 0.397708 0 0 0 0 0.47749 0 0 0 0 0.575 0 0 0 0.27 0"/>
<feBlend mode="normal" in2="BackgroundImageFix" result="effect1_dropShadow_4440_3742"/>
<feBlend mode="normal" in="SourceGraphic" in2="effect1_dropShadow_4440_3742" result="shape"/>
</filter>
</defs>
</svg>
