<svg width="40" height="40" viewBox="0 0 40 40" fill="none" xmlns="http://www.w3.org/2000/svg">
<mask id="mask0_4598_574" style="mask-type:alpha" maskUnits="userSpaceOnUse" x="0" y="0" width="40" height="40">
<rect width="40" height="40" fill="#D9D9D9"/>
</mask>
<g mask="url(#mask0_4598_574)">
<path d="M13.333 18.3333C13.8052 18.3333 14.2011 18.1735 14.5205 17.8541C14.84 17.5346 14.9997 17.1388 14.9997 16.6666C14.9997 16.1944 14.84 15.7985 14.5205 15.4791C14.2011 15.1596 13.8052 14.9999 13.333 14.9999C12.8608 14.9999 12.465 15.1596 12.1455 15.4791C11.8261 15.7985 11.6663 16.1944 11.6663 16.6666C11.6663 17.1388 11.8261 17.5346 12.1455 17.8541C12.465 18.1735 12.8608 18.3333 13.333 18.3333ZM19.9997 18.3333C20.4719 18.3333 20.8677 18.1735 21.1872 17.8541C21.5066 17.5346 21.6663 17.1388 21.6663 16.6666C21.6663 16.1944 21.5066 15.7985 21.1872 15.4791C20.8677 15.1596 20.4719 14.9999 19.9997 14.9999C19.5275 14.9999 19.1316 15.1596 18.8122 15.4791C18.4927 15.7985 18.333 16.1944 18.333 16.6666C18.333 17.1388 18.4927 17.5346 18.8122 17.8541C19.1316 18.1735 19.5275 18.3333 19.9997 18.3333ZM26.6663 18.3333C27.1386 18.3333 27.5344 18.1735 27.8538 17.8541C28.1733 17.5346 28.333 17.1388 28.333 16.6666C28.333 16.1944 28.1733 15.7985 27.8538 15.4791C27.5344 15.1596 27.1386 14.9999 26.6663 14.9999C26.1941 14.9999 25.7983 15.1596 25.4788 15.4791C25.1594 15.7985 24.9997 16.1944 24.9997 16.6666C24.9997 17.1388 25.1594 17.5346 25.4788 17.8541C25.7983 18.1735 26.1941 18.3333 26.6663 18.3333ZM9.99967 29.9999L6.16634 33.8333C5.63856 34.361 5.0344 34.4791 4.35384 34.1874C3.67329 33.8958 3.33301 33.3749 3.33301 32.6249V6.66659C3.33301 5.74992 3.6594 4.9652 4.31217 4.31242C4.96495 3.65964 5.74967 3.33325 6.66634 3.33325H33.333C34.2497 3.33325 35.0344 3.65964 35.6872 4.31242C36.34 4.9652 36.6663 5.74992 36.6663 6.66659V26.6666C36.6663 27.5833 36.34 28.368 35.6872 29.0208C35.0344 29.6735 34.2497 29.9999 33.333 29.9999H9.99967ZM8.58301 26.6666H33.333V6.66659H6.66634V28.5416L8.58301 26.6666Z" fill="#54777A"/>
</g>
</svg>
