<svg width="34" height="33" viewBox="0 0 34 33" fill="none" xmlns="http://www.w3.org/2000/svg">
<path d="M13.3333 13.9998C11.5 13.9998 9.93056 13.3471 8.625 12.0415C7.31945 10.7359 6.66667 9.1665 6.66667 7.33317C6.66667 5.49984 7.31945 3.93039 8.625 2.62484C9.93056 1.31928 11.5 0.666504 13.3333 0.666504C15.1667 0.666504 16.7361 1.31928 18.0417 2.62484C19.3472 3.93039 20 5.49984 20 7.33317C20 9.1665 19.3472 10.7359 18.0417 12.0415C16.7361 13.3471 15.1667 13.9998 13.3333 13.9998ZM13.3333 10.6665C14.25 10.6665 15.0347 10.3401 15.6875 9.68734C16.3403 9.03456 16.6667 8.24984 16.6667 7.33317C16.6667 6.4165 16.3403 5.63178 15.6875 4.979C15.0347 4.32623 14.25 3.99984 13.3333 3.99984C12.4167 3.99984 11.6319 4.32623 10.9792 4.979C10.3264 5.63178 10 6.4165 10 7.33317C10 8.24984 10.3264 9.03456 10.9792 9.68734C11.6319 10.3401 12.4167 10.6665 13.3333 10.6665ZM30.6667 31.9998L26.5 27.8332C25.9167 28.1665 25.2917 28.4443 24.625 28.6665C23.9583 28.8887 23.25 28.9998 22.5 28.9998C20.4167 28.9998 18.6458 28.2707 17.1875 26.8123C15.7292 25.354 15 23.5832 15 21.4998C15 19.4165 15.7292 17.6457 17.1875 16.1873C18.6458 14.729 20.4167 13.9998 22.5 13.9998C24.5833 13.9998 26.3542 14.729 27.8125 16.1873C29.2708 17.6457 30 19.4165 30 21.4998C30 22.2498 29.8889 22.9582 29.6667 23.6248C29.4444 24.2915 29.1667 24.9165 28.8333 25.4998L33 29.6665C33.3056 29.9721 33.4583 30.361 33.4583 30.8332C33.4583 31.3054 33.3056 31.6943 33 31.9998C32.6944 32.3054 32.3056 32.4582 31.8333 32.4582C31.3611 32.4582 30.9722 32.3054 30.6667 31.9998ZM22.5 25.6665C23.6667 25.6665 24.6528 25.2637 25.4583 24.4582C26.2639 23.6526 26.6667 22.6665 26.6667 21.4998C26.6667 20.3332 26.2639 19.3471 25.4583 18.5415C24.6528 17.736 23.6667 17.3332 22.5 17.3332C21.3333 17.3332 20.3472 17.736 19.5417 18.5415C18.7361 19.3471 18.3333 20.3332 18.3333 21.4998C18.3333 22.6665 18.7361 23.6526 19.5417 24.4582C20.3472 25.2637 21.3333 25.6665 22.5 25.6665ZM0 23.9998V22.7082C0 21.7637 0.236111 20.8887 0.708333 20.0832C1.18056 19.2776 1.83333 18.6665 2.66667 18.2498C4.08333 17.5276 5.68056 16.9165 7.45833 16.4165C9.23611 15.9165 11.2083 15.6665 13.375 15.6665C13.0417 16.1665 12.7569 16.7012 12.5208 17.2707C12.2847 17.8401 12.0972 18.4304 11.9583 19.0415C10.2917 19.1804 8.80556 19.4651 7.5 19.8957C6.19444 20.3262 5.09722 20.7776 4.20833 21.2498C3.93056 21.3887 3.71528 21.5901 3.5625 21.854C3.40972 22.1179 3.33333 22.4026 3.33333 22.7082V23.9998H11.9583C12.0972 24.6109 12.2847 25.1943 12.5208 25.7498C12.7569 26.3054 13.0417 26.8332 13.375 27.3332H3.33333C2.41667 27.3332 1.63194 27.0068 0.979167 26.354C0.326389 25.7012 0 24.9165 0 23.9998Z" fill="#54777A"/>
</svg>
