<svg width="40" height="40" viewBox="0 0 40 40" fill="none" xmlns="http://www.w3.org/2000/svg">
<g id="receipt_long">
<mask id="mask0_4934_470" style="mask-type:alpha" maskUnits="userSpaceOnUse" x="0" y="0" width="40" height="40">
<rect id="Bounding box" width="40" height="40" fill="#D9D9D9"/>
</mask>
<g mask="url(#mask0_4934_470)">
<path id="receipt_long_2" d="M10 36.6667C8.61111 36.6667 7.43056 36.1806 6.45833 35.2084C5.48611 34.2362 5 33.0556 5 31.6667V26.6667H10V3.33337L12.5 5.83337L15 3.33337L17.5 5.83337L20 3.33337L22.5 5.83337L25 3.33337L27.5 5.83337L30 3.33337L32.5 5.83337L35 3.33337V31.6667C35 33.0556 34.5139 34.2362 33.5417 35.2084C32.5694 36.1806 31.3889 36.6667 30 36.6667H10ZM30 33.3334C30.4722 33.3334 30.8681 33.1737 31.1875 32.8542C31.5069 32.5348 31.6667 32.1389 31.6667 31.6667V8.33337H13.3333V26.6667H28.3333V31.6667C28.3333 32.1389 28.4931 32.5348 28.8125 32.8542C29.1319 33.1737 29.5278 33.3334 30 33.3334ZM15 15V11.6667H25V15H15ZM15 20V16.6667H25V20H15ZM28.3333 15C27.8611 15 27.4653 14.8403 27.1458 14.5209C26.8264 14.2014 26.6667 13.8056 26.6667 13.3334C26.6667 12.8612 26.8264 12.4653 27.1458 12.1459C27.4653 11.8264 27.8611 11.6667 28.3333 11.6667C28.8056 11.6667 29.2014 11.8264 29.5208 12.1459C29.8403 12.4653 30 12.8612 30 13.3334C30 13.8056 29.8403 14.2014 29.5208 14.5209C29.2014 14.8403 28.8056 15 28.3333 15ZM28.3333 20C27.8611 20 27.4653 19.8403 27.1458 19.5209C26.8264 19.2014 26.6667 18.8056 26.6667 18.3334C26.6667 17.8612 26.8264 17.4653 27.1458 17.1459C27.4653 16.8264 27.8611 16.6667 28.3333 16.6667C28.8056 16.6667 29.2014 16.8264 29.5208 17.1459C29.8403 17.4653 30 17.8612 30 18.3334C30 18.8056 29.8403 19.2014 29.5208 19.5209C29.2014 19.8403 28.8056 20 28.3333 20ZM10 33.3334H25V30H8.33333V31.6667C8.33333 32.1389 8.49306 32.5348 8.8125 32.8542C9.13194 33.1737 9.52778 33.3334 10 33.3334Z" fill="#54777A"/>
</g>
</g>
</svg>
