<svg width="40" height="40" viewBox="0 0 40 40" fill="none" xmlns="http://www.w3.org/2000/svg">
<mask id="mask0_4189_125" style="mask-type:alpha" maskUnits="userSpaceOnUse" x="0" y="0" width="40" height="40">
<rect width="40" height="40" fill="#D9D9D9"/>
</mask>
<g mask="url(#mask0_4189_125)">
<path d="M10.0003 36.6668C9.08366 36.6668 8.29894 36.3404 7.64616 35.6877C6.99338 35.0349 6.66699 34.2502 6.66699 33.3335V13.3335C6.66699 12.4168 6.99338 11.6321 7.64616 10.9793C8.29894 10.3266 9.08366 10.0002 10.0003 10.0002H13.3337C13.3337 8.16683 13.9864 6.59739 15.292 5.29183C16.5975 3.98627 18.167 3.3335 20.0003 3.3335C21.8337 3.3335 23.4031 3.98627 24.7087 5.29183C26.0142 6.59739 26.667 8.16683 26.667 10.0002H30.0003C30.917 10.0002 31.7017 10.3266 32.3545 10.9793C33.0073 11.6321 33.3337 12.4168 33.3337 13.3335V33.3335C33.3337 34.2502 33.0073 35.0349 32.3545 35.6877C31.7017 36.3404 30.917 36.6668 30.0003 36.6668H10.0003ZM10.0003 33.3335H30.0003V13.3335H26.667V16.6668C26.667 17.1391 26.5073 17.5349 26.1878 17.8543C25.8684 18.1738 25.4725 18.3335 25.0003 18.3335C24.5281 18.3335 24.1323 18.1738 23.8128 17.8543C23.4934 17.5349 23.3337 17.1391 23.3337 16.6668V13.3335H16.667V16.6668C16.667 17.1391 16.5073 17.5349 16.1878 17.8543C15.8684 18.1738 15.4725 18.3335 15.0003 18.3335C14.5281 18.3335 14.1323 18.1738 13.8128 17.8543C13.4934 17.5349 13.3337 17.1391 13.3337 16.6668V13.3335H10.0003V33.3335ZM16.667 10.0002H23.3337C23.3337 9.0835 23.0073 8.29877 22.3545 7.646C21.7017 6.99322 20.917 6.66683 20.0003 6.66683C19.0837 6.66683 18.2989 6.99322 17.6462 7.646C16.9934 8.29877 16.667 9.0835 16.667 10.0002Z" fill="#54777A"/>
</g>
</svg>
