<svg width="12" height="12" viewBox="0 0 12 12" fill="none" xmlns="http://www.w3.org/2000/svg">
<path d="M9.125 6.75002H0.749479C0.537132 6.75002 0.359132 6.67857 0.215479 6.53567C0.0718264 6.39275 0 6.21567 0 6.00442C0 5.79315 0.0718264 5.6146 0.215479 5.46877C0.359132 5.32294 0.537132 5.25002 0.749479 5.25002H9.125L5.45392 1.57894C5.30408 1.4291 5.22917 1.25349 5.22917 1.0521C5.22917 0.850715 5.30556 0.670311 5.45833 0.510895C5.61111 0.364756 5.78819 0.291687 5.98958 0.291687C6.19097 0.291687 6.36673 0.36684 6.51685 0.517146L11.4708 5.47727C11.5458 5.55242 11.6007 5.63384 11.6354 5.72152C11.6701 5.8092 11.6875 5.90315 11.6875 6.00335C11.6875 6.10355 11.6701 6.19749 11.6354 6.28517C11.6007 6.37285 11.5486 6.45141 11.4792 6.52085L6.52083 11.4792C6.36806 11.632 6.19444 11.7049 6 11.6979C5.80556 11.691 5.63194 11.6145 5.47917 11.4683C5.32639 11.3089 5.25 11.1273 5.25 10.9236C5.25 10.7199 5.32639 10.544 5.47917 10.3959L9.125 6.75002Z" fill="white"/>
</svg>
