<svg width="12" height="12" viewBox="0 0 12 12" fill="none" xmlns="http://www.w3.org/2000/svg">
<path d="M9.125 6.75008H0.749479C0.537132 6.75008 0.359132 6.67863 0.215479 6.53573C0.0718264 6.39281 0 6.21573 0 6.00448C0 5.79321 0.0718264 5.61467 0.215479 5.46883C0.359132 5.323 0.537132 5.25008 0.749479 5.25008H9.125L5.45392 1.579C5.30408 1.42917 5.22917 1.25355 5.22917 1.05216C5.22917 0.850776 5.30556 0.670372 5.45833 0.510956C5.61111 0.364817 5.78819 0.291748 5.98958 0.291748C6.19097 0.291748 6.36673 0.366901 6.51685 0.517207L11.4708 5.47733C11.5458 5.55248 11.6007 5.6339 11.6354 5.72158C11.6701 5.80926 11.6875 5.90321 11.6875 6.00342C11.6875 6.10361 11.6701 6.19755 11.6354 6.28523C11.6007 6.37291 11.5486 6.45147 11.4792 6.52092L6.52083 11.4792C6.36806 11.632 6.19444 11.7049 6 11.698C5.80556 11.6911 5.63194 11.6145 5.47917 11.4684C5.32639 11.309 5.25 11.1274 5.25 10.9237C5.25 10.72 5.32639 10.5441 5.47917 10.3959L9.125 6.75008Z" fill="#A9A9A9"/>
</svg>
