<svg width="40" height="40" viewBox="0 0 40 40" fill="none" xmlns="http://www.w3.org/2000/svg">
<mask id="mask0_4135_688" style="mask-type:alpha" maskUnits="userSpaceOnUse" x="0" y="-1" width="49" height="49">
<rect x="0.765625" y="-0.521973" width="48" height="48" fill="#D9D9D9"/>
</mask>
<g mask="url(#mask0_4135_688)">
<path d="M20.4288 32.8984C20.5399 32.8984 20.651 32.8707 20.7621 32.8151C20.8732 32.7596 20.9566 32.704 21.0121 32.6484L34.6788 18.9818C35.0121 18.6484 35.2552 18.2734 35.4079 17.8568C35.5607 17.4401 35.6371 17.0234 35.6371 16.6068C35.6371 16.1623 35.5607 15.7387 35.4079 15.3359C35.2552 14.9332 35.0121 14.579 34.6788 14.2734L27.5954 7.1901C27.2899 6.85677 26.9357 6.61372 26.5329 6.46094C26.1302 6.30816 25.7066 6.23177 25.2621 6.23177C24.8454 6.23177 24.4288 6.30816 24.0121 6.46094C23.5954 6.61372 23.2204 6.85677 22.8871 7.1901L22.4288 7.64844L25.5121 10.7734C25.9288 11.1623 26.2343 11.6068 26.4288 12.1068C26.6232 12.6068 26.7204 13.1345 26.7204 13.6901C26.7204 14.8568 26.3246 15.8359 25.5329 16.6276C24.7413 17.4193 23.7621 17.8151 22.5954 17.8151C22.0399 17.8151 21.5052 17.7179 20.9913 17.5234C20.4774 17.329 20.026 17.0373 19.6371 16.6484L16.5121 13.5651L9.22044 20.8568C9.13711 20.9401 9.07461 21.0304 9.03294 21.1276C8.99128 21.2248 8.97044 21.329 8.97044 21.4401C8.97044 21.6623 9.05378 21.8637 9.22044 22.0443C9.38711 22.2248 9.58155 22.3151 9.80378 22.3151C9.91489 22.3151 10.026 22.2873 10.1371 22.2318C10.2482 22.1762 10.3316 22.1207 10.3871 22.0651L16.0538 16.3984L18.3871 18.7318L12.7621 24.3984C12.6788 24.4818 12.6163 24.572 12.5746 24.6693C12.5329 24.7665 12.5121 24.8707 12.5121 24.9818C12.5121 25.204 12.5954 25.3984 12.7621 25.5651C12.9288 25.7318 13.1232 25.8151 13.3454 25.8151C13.4566 25.8151 13.5677 25.7873 13.6788 25.7318C13.7899 25.6762 13.8732 25.6207 13.9288 25.5651L19.5954 19.9401L21.9288 22.2734L16.3038 27.9401C16.2204 27.9957 16.1579 28.079 16.1163 28.1901C16.0746 28.3012 16.0538 28.4123 16.0538 28.5234C16.0538 28.7457 16.1371 28.9401 16.3038 29.1068C16.4704 29.2734 16.6649 29.3568 16.8871 29.3568C16.9982 29.3568 17.1024 29.3359 17.1996 29.2943C17.2968 29.2526 17.3871 29.1901 17.4704 29.1068L23.1371 23.4818L25.4704 25.8151L19.8038 31.4818C19.7204 31.5651 19.6579 31.6554 19.6163 31.7526C19.5746 31.8498 19.5538 31.954 19.5538 32.0651C19.5538 32.2873 19.6441 32.4818 19.8246 32.6484C20.0052 32.8151 20.2066 32.8984 20.4288 32.8984ZM20.3871 36.2318C19.3593 36.2318 18.4496 35.8915 17.6579 35.2109C16.8663 34.5304 16.401 33.6762 16.2621 32.6484C15.3177 32.5095 14.526 32.1207 13.8871 31.4818C13.2482 30.8429 12.8593 30.0512 12.7204 29.1068C11.776 28.9679 10.9913 28.572 10.3663 27.9193C9.74128 27.2665 9.35933 26.4818 9.22044 25.5651C8.16489 25.4262 7.30378 24.9679 6.63711 24.1901C5.97044 23.4123 5.63711 22.4957 5.63711 21.4401C5.63711 20.8845 5.74128 20.3498 5.94961 19.8359C6.15794 19.322 6.45655 18.8707 6.84544 18.4818L16.5121 8.85677L21.9704 14.3151C22.026 14.3984 22.1093 14.4609 22.2204 14.5026C22.3316 14.5443 22.4427 14.5651 22.5538 14.5651C22.8038 14.5651 23.0121 14.4887 23.1788 14.3359C23.3454 14.1832 23.4288 13.9818 23.4288 13.7318C23.4288 13.6207 23.4079 13.5095 23.3663 13.3984C23.3246 13.2873 23.2621 13.204 23.1788 13.1484L17.2204 7.1901C16.9149 6.85677 16.5607 6.61372 16.1579 6.46094C15.7552 6.30816 15.3316 6.23177 14.8871 6.23177C14.4704 6.23177 14.0538 6.30816 13.6371 6.46094C13.2204 6.61372 12.8454 6.85677 12.5121 7.1901L6.63711 13.1068C6.38711 13.3568 6.17878 13.6484 6.01211 13.9818C5.84544 14.3151 5.73433 14.6484 5.67878 14.9818C5.62322 15.3151 5.62322 15.6554 5.67878 16.0026C5.73433 16.3498 5.84544 16.6762 6.01211 16.9818L3.59544 19.3984C3.12322 18.7595 2.776 18.0582 2.55378 17.2943C2.33155 16.5304 2.24822 15.7595 2.30378 14.9818C2.35933 14.204 2.55378 13.447 2.88711 12.7109C3.22044 11.9748 3.67878 11.3151 4.26211 10.7318L10.1371 4.85677C10.8038 4.21788 11.5468 3.73177 12.3663 3.39844C13.1857 3.0651 14.026 2.89844 14.8871 2.89844C15.7482 2.89844 16.5885 3.0651 17.4079 3.39844C18.2274 3.73177 18.9566 4.21788 19.5954 4.85677L20.0538 5.3151L20.5121 4.85677C21.1788 4.21788 21.9218 3.73177 22.7413 3.39844C23.5607 3.0651 24.401 2.89844 25.2621 2.89844C26.1232 2.89844 26.9635 3.0651 27.7829 3.39844C28.6024 3.73177 29.3316 4.21788 29.9704 4.85677L37.0121 11.8984C37.651 12.5373 38.1371 13.2734 38.4704 14.1068C38.8038 14.9401 38.9704 15.7873 38.9704 16.6484C38.9704 17.5095 38.8038 18.3498 38.4704 19.1693C38.1371 19.9887 37.651 20.7179 37.0121 21.3568L23.3454 34.9818C22.9566 35.3707 22.5052 35.6762 21.9913 35.8984C21.4774 36.1207 20.9427 36.2318 20.3871 36.2318Z" fill="#54777A"/>
</g>
</svg>
