<svg width="62" height="61" viewBox="0 0 62 61" fill="none" xmlns="http://www.w3.org/2000/svg">
<rect y="0.5" width="62" height="60" rx="30" fill="#F3F4F6"/>
<mask id="mask0_1145_7724" style="mask-type:alpha" maskUnits="userSpaceOnUse" x="15" y="14" width="32" height="33">
<rect x="15" y="14.5" width="32" height="32" fill="#D9D9D9"/>
</mask>
<g mask="url(#mask0_1145_7724)">
<path d="M39.0002 33.1667V29.1667H35.0002V26.5H39.0002V22.5H41.6668V26.5H45.6668V29.1667H41.6668V33.1667H39.0002ZM27.0002 30.5C25.5335 30.5 24.2779 29.9778 23.2335 28.9333C22.1891 27.8889 21.6668 26.6333 21.6668 25.1667C21.6668 23.7 22.1891 22.4444 23.2335 21.4C24.2779 20.3556 25.5335 19.8333 27.0002 19.8333C28.4668 19.8333 29.7224 20.3556 30.7668 21.4C31.8113 22.4444 32.3335 23.7 32.3335 25.1667C32.3335 26.6333 31.8113 27.8889 30.7668 28.9333C29.7224 29.9778 28.4668 30.5 27.0002 30.5ZM16.3335 41.1667V37.4333C16.3335 36.6778 16.5279 35.9833 16.9168 35.35C17.3057 34.7167 17.8224 34.2333 18.4668 33.9C19.8446 33.2111 21.2446 32.6944 22.6668 32.35C24.0891 32.0056 25.5335 31.8333 27.0002 31.8333C28.4668 31.8333 29.9113 32.0056 31.3335 32.35C32.7557 32.6944 34.1557 33.2111 35.5335 33.9C36.1779 34.2333 36.6946 34.7167 37.0835 35.35C37.4724 35.9833 37.6668 36.6778 37.6668 37.4333V41.1667H16.3335ZM19.0002 38.5H35.0002V37.4333C35.0002 37.1889 34.9391 36.9667 34.8168 36.7667C34.6946 36.5667 34.5335 36.4111 34.3335 36.3C33.1335 35.7 31.9224 35.25 30.7002 34.95C29.4779 34.65 28.2446 34.5 27.0002 34.5C25.7557 34.5 24.5224 34.65 23.3002 34.95C22.0779 35.25 20.8668 35.7 19.6668 36.3C19.4668 36.4111 19.3057 36.5667 19.1835 36.7667C19.0613 36.9667 19.0002 37.1889 19.0002 37.4333V38.5ZM27.0002 27.8333C27.7335 27.8333 28.3613 27.5722 28.8835 27.05C29.4057 26.5278 29.6668 25.9 29.6668 25.1667C29.6668 24.4333 29.4057 23.8056 28.8835 23.2833C28.3613 22.7611 27.7335 22.5 27.0002 22.5C26.2668 22.5 25.6391 22.7611 25.1168 23.2833C24.5946 23.8056 24.3335 24.4333 24.3335 25.1667C24.3335 25.9 24.5946 26.5278 25.1168 27.05C25.6391 27.5722 26.2668 27.8333 27.0002 27.8333Z" fill="#1C1B1F"/>
</g>
</svg>
