<svg width="47" height="46" viewBox="0 0 47 46" fill="none" xmlns="http://www.w3.org/2000/svg">
<g clip-path="url(#clip0_1145_2698)">
<path d="M4.3335 36.4167C4.3335 32.2 7.7835 28.75 12.0002 28.75H19.6668C23.8835 28.75 27.3335 32.2 27.3335 36.4167" stroke="#9CA3AF" stroke-width="2" stroke-linecap="round" stroke-linejoin="round"/>
<path d="M20.6251 11.5C23.3085 14.1833 23.3085 18.4 20.6251 20.8917C17.9418 23.3833 13.7251 23.575 11.2335 20.8917C8.74179 18.2083 8.55013 14.1833 11.0418 11.5C13.5335 8.81667 17.9418 9.00834 20.6251 11.5" stroke="#9CA3AF" stroke-width="2" stroke-linecap="round" stroke-linejoin="round"/>
<path d="M31.167 26.8334H36.917C40.1753 26.8334 42.667 29.325 42.667 32.5834" stroke="#9CA3AF" stroke-width="2" stroke-linecap="round" stroke-linejoin="round"/>
<path d="M37.4919 12.8417C39.4086 14.7584 39.4086 17.8251 37.4919 19.5501C35.5752 21.2751 32.5086 21.4667 30.7836 19.5501C29.0586 17.6334 28.8669 14.5667 30.7836 12.8417C32.5086 11.1167 35.5752 11.1167 37.4919 12.8417" stroke="#9CA3AF" stroke-width="2" stroke-linecap="round" stroke-linejoin="round"/>
</g>
<defs>
<clipPath id="clip0_1145_2698">
<rect width="46" height="46" fill="white" transform="translate(0.5)"/>
</clipPath>
</defs>
</svg>
