<svg width="106" height="46" viewBox="0 0 106 46" fill="none" xmlns="http://www.w3.org/2000/svg">
<g id="Asset 1 1" clip-path="url(#clip0_3249_128)">
<g id="Layer 1">
<path id="Vector" d="M0 6.12318H0.550555V7.62091H1.01961V6.12318H1.5756V5.72656H0V6.12318Z" fill="#0C3E42"/>
<g id="Group">
<path id="Vector_2" d="M3.06447 5.72656L2.83084 6.55602C2.80911 6.6357 2.7747 6.77878 2.7258 6.98704H2.72037L2.61171 6.55602L2.38171 5.72656H1.75146V7.62091H2.17344V6.67011C2.17344 6.6194 2.16981 6.49263 2.16619 6.28798H2.17163L2.25856 6.64295L2.5284 7.62091H2.91596L3.18943 6.64114C3.20392 6.59586 3.23289 6.47814 3.27636 6.28798H3.28179L3.27455 6.66649V7.62091H3.70376V5.72656H3.06809H3.06447Z" fill="#0C3E42"/>
<path id="Vector_3" d="M104.182 11.0328C102.97 8.95377 101.251 7.34919 99.0255 6.2191C96.798 5.08901 94.2118 4.52397 91.2652 4.52397C88.3187 4.52397 85.7307 5.08901 83.5049 6.2191C81.2774 7.34919 79.5587 8.95377 78.3489 11.0328C77.1373 13.1119 76.5325 15.526 76.5325 18.277C76.5325 19.762 76.7099 21.1493 77.0649 22.4387C76.1141 22.1562 74.3139 21.2779 74.3139 20.2347V0H62.0967V20.1405C62.0967 27.8175 65.8944 32.0282 74.2324 32.0282H80.7685L80.8065 28.5075C81.6052 29.212 82.5016 29.8242 83.5086 30.3349C85.7343 31.465 88.3223 32.03 91.2689 32.03C94.2154 32.03 96.8016 31.465 99.0292 30.3349C101.255 29.2048 102.974 27.602 104.185 25.5211C105.397 23.4421 106.003 21.028 106.003 18.277C106.003 15.526 105.397 13.1119 104.185 11.0328M94.5106 20.807C94.2154 21.5115 93.7898 22.0439 93.2338 22.4025C92.676 22.7629 92.0223 22.9422 91.2689 22.9422C90.5155 22.9422 89.8599 22.7629 89.3039 22.4025C88.7461 22.0421 88.3223 21.5115 88.0271 20.807C87.7319 20.1025 87.5852 19.2604 87.5852 18.277C87.5852 17.2936 87.7319 16.4515 88.0271 15.747C88.3223 15.0425 88.7461 14.5118 89.3039 14.1514C89.8599 13.791 90.5137 13.6118 91.2689 13.6118C92.0241 13.6118 92.676 13.7929 93.2338 14.1514C93.7898 14.5118 94.2154 15.0443 94.5106 15.747C94.8058 16.4515 94.9525 17.2936 94.9525 18.277C94.9525 19.2604 94.8058 20.1025 94.5106 20.807Z" fill="#0C3E42"/>
<path id="Vector_4" d="M46.3408 18.737C46.3408 19.6479 46.1307 20.3597 45.7124 20.8704C45.2922 21.3811 44.7181 21.6365 43.9883 21.6365C43.6569 21.6365 43.3617 21.5839 43.09 21.4916C43.1172 21.0551 43.1317 20.606 43.1317 20.1424V0H30.9144V20.2365C30.9144 21.2054 30.315 22.0313 29.4674 22.3699V20.2546L29.4438 20.2619C29.4583 19.9685 29.4674 19.6715 29.4674 19.369C29.4674 16.6181 28.8607 14.204 27.6509 12.1249C26.4393 10.0458 24.7207 8.44124 22.4949 7.31116C20.2673 6.18107 17.6812 5.61603 14.7346 5.61603C11.788 5.61603 9.20188 6.18107 6.9743 7.31116C4.74673 8.44124 3.02805 10.0458 1.81828 12.1249C0.604886 14.2058 0 16.6199 0 19.3709C0 22.1218 0.604886 24.5359 1.81647 26.615C3.02805 28.6941 4.74673 30.2986 6.97249 31.4287C9.19826 32.5588 11.7862 33.1239 14.7328 33.1239C15.6039 33.1239 16.4406 33.0732 17.2483 32.9754V33.372C17.2483 34.6415 16.2197 35.672 14.9483 35.672H11.7989V45.1655H17.3298C25.6678 45.1655 29.4656 40.9548 29.4656 33.2778V32.0318H30.9959C36.5015 32.0318 40.0257 30.1954 41.7861 26.7363C42.6046 28.2015 43.6623 29.3895 44.9717 30.2805C46.6849 31.4468 48.6553 32.03 50.8793 32.03C52.5563 32.03 53.9979 31.6388 55.2004 30.8546C56.4048 30.0705 57.3248 28.9404 57.9622 27.4626C58.5997 25.9848 58.9203 24.2262 58.9203 22.1834V9.38661H46.339V18.737H46.3408ZM14.7346 24.0361C13.9812 24.0361 13.3256 23.8568 12.7696 23.4964C12.2118 23.136 11.788 22.6054 11.4928 21.9009C11.1976 21.1964 11.0509 20.3542 11.0509 19.3709C11.0509 18.3875 11.1976 17.5453 11.4928 16.8408C11.788 16.1363 12.2118 15.6057 12.7696 15.2453C13.3256 14.8849 13.9794 14.7056 14.7346 14.7056C15.4898 14.7056 16.1418 14.8867 16.6996 15.2453C17.2556 15.6057 17.6812 16.1382 17.9764 16.8408C18.2716 17.5453 18.4182 18.3875 18.4182 19.3709C18.4182 20.3542 18.2716 21.1964 17.9764 21.9009C17.6812 22.6054 17.2556 23.1378 16.6996 23.4964C16.1418 23.8568 15.488 24.0361 14.7346 24.0361Z" fill="#0C3E42"/>
<path id="Vector_5" d="M49.807 38.8105C49.807 41.0706 47.9742 42.9034 45.714 42.9034C43.4539 42.9034 41.6211 41.0706 41.6211 38.8105C41.6211 36.5503 43.4539 34.7175 45.714 34.7175C47.9742 34.7175 49.807 36.5503 49.807 38.8105Z" fill="#0C3E42"/>
<path id="Vector_6" d="M58.9222 38.8105C58.9222 41.0706 57.0894 42.9034 54.8293 42.9034C52.5691 42.9034 50.7363 41.0706 50.7363 38.8105C50.7363 36.5503 52.5691 34.7175 54.8293 34.7175C57.0894 34.7175 58.9222 36.5503 58.9222 38.8105Z" fill="#0C3E42"/>
</g>
</g>
</g>
<defs>
<clipPath id="clip0_3249_128">
<rect width="106" height="45.1618" fill="white"/>
</clipPath>
</defs>
</svg>
