<svg width="107" height="32" viewBox="0 0 107 32" fill="none" xmlns="http://www.w3.org/2000/svg">
<g clip-path="url(#clip0_694_6471)">
<path d="M0 0.45343H8.16727L9.93675 5.62548H9.98283C10.5579 3.90208 11.5625 2.53257 13.0002 1.51881C14.436 0.506883 16.0452 0 17.8312 0C19.6173 0 21.1287 0.470019 22.2771 1.40637C23.4254 2.34457 24.2124 3.73619 24.6364 5.58125H24.6824C25.4087 3.79702 26.4814 2.42014 27.9044 1.45245C29.3255 0.484765 30.9586 0 32.8036 0C34.1953 0 35.3897 0.324405 36.3887 0.975059C37.3877 1.62571 38.1508 2.56206 38.6798 3.7878C39.2088 5.01354 39.4742 6.47336 39.4742 8.16543V24.0447H29.038V11.0261C29.038 10.2704 28.8629 9.68055 28.5163 9.25661C28.168 8.83267 27.6924 8.6207 27.0878 8.6207C26.6344 8.6207 26.2492 8.72761 25.9303 8.93773C25.6133 9.1497 25.37 9.45936 25.2041 9.86856C25.0382 10.2777 24.9552 10.768 24.9552 11.3431V24.0465H14.519V11.0261C14.519 10.2704 14.3439 9.68055 13.9973 9.25661C13.649 8.83267 13.1734 8.6207 12.5689 8.6207C11.9035 8.6207 11.3818 8.85479 11.004 9.32296C10.6261 9.79298 10.4363 10.4658 10.4363 11.3431V24.0465H0V0.45343Z" fill="#1F1F1F"/>
<path d="M55.7387 0.45343L52.926 14.6554L50.8653 0.45343H40.3018L44.9707 24.0465H51.0643L49.505 31.9189H60.0647L66.3003 0.45343H55.7387Z" fill="#1F1F1F"/>
<path d="M82.7215 32H78.2167C71.301 32 68.1509 28.5071 68.1509 22.1407V0.45343H78.2849V22.7563C78.2849 23.4696 78.8618 24.0465 79.5751 24.0465H82.7215V32Z" fill="#1F1F1F"/>
<path d="M86.054 23.0789C88.0447 24.0889 90.3579 24.594 92.9937 24.594C95.6295 24.594 97.9409 24.0889 99.9334 23.0789C101.924 22.0688 103.461 20.6348 104.545 18.775C105.629 16.9152 106.171 14.7568 106.171 12.2979C106.171 9.83906 105.629 7.68066 104.545 5.82086C103.461 3.96106 101.924 2.52704 99.9334 1.51696C97.9427 0.506883 95.6295 0.00184321 92.9937 0.00184321C90.3579 0.00184321 88.0447 0.506883 86.054 1.51696C84.0633 2.52704 82.5261 3.96291 81.4423 5.82086C80.3585 7.68066 79.8166 9.83906 79.8166 12.2979C79.8166 14.7568 80.3585 16.917 81.4423 18.775C82.5243 20.6348 84.0615 22.0688 86.054 23.0789ZM94.7079 16.1945C94.2213 16.5096 93.6499 16.6663 92.9937 16.6663C92.3375 16.6663 91.7643 16.5096 91.2795 16.1945C90.7929 15.8811 90.4224 15.4166 90.1662 14.801C89.91 14.1872 89.781 13.4518 89.781 12.5947C89.781 11.7376 89.91 11.0021 90.1662 10.3883C90.4224 9.77455 90.7947 9.31006 91.2795 8.99487C91.7643 8.68153 92.3357 8.52301 92.9937 8.52301C93.6517 8.52301 94.2213 8.68153 94.7079 8.99487C95.1926 9.31006 95.565 9.77271 95.8212 10.3883C96.0774 11.004 96.2064 11.7376 96.2064 12.5947C96.2064 13.4518 96.0774 14.1872 95.8212 14.801C95.5631 15.4166 95.1926 15.8793 94.7079 16.1945Z" fill="#1F1F1F"/>
</g>
<defs>
<clipPath id="clip0_694_6471">
<rect width="106.169" height="32" fill="white"/>
</clipPath>
</defs>
</svg>
