<svg width="106" height="46" viewBox="0 0 106 46" fill="none" xmlns="http://www.w3.org/2000/svg">
<g clip-path="url(#clip0_829_4794)">
<path d="M0 6.54213H0.550555V8.03985H1.01961V6.54213H1.5756V6.14551H0V6.54213Z" fill="black"/>
<path d="M3.06496 6.14551L2.83133 6.97496C2.8096 7.05465 2.77519 7.19772 2.72629 7.40599H2.72086L2.6122 6.97496L2.38219 6.14551H1.75195V8.03985H2.17392V7.08906C2.17392 7.03835 2.1703 6.91158 2.16668 6.70693H2.17211L2.25904 7.06189L2.52889 8.03985H2.91645L3.18992 7.06008C3.20441 7.01481 3.23338 6.89709 3.27685 6.70693H3.28228L3.27504 7.08544V8.03985H3.70425V6.14551H3.06858H3.06496Z" fill="black"/>
<path d="M104.183 11.4518C102.971 9.37271 101.252 7.76813 99.0265 6.63805C96.7989 5.50796 94.2128 4.94292 91.2662 4.94292C88.3197 4.94292 85.7317 5.50796 83.5059 6.63805C81.2783 7.76813 79.5597 9.37271 78.3499 11.4518C77.1383 13.5309 76.5334 15.945 76.5334 18.6959C76.5334 20.181 76.7109 21.5682 77.0659 22.8577C76.1151 22.5752 74.3149 21.6968 74.3149 20.6537V0.418945H62.0977V20.5595C62.0977 28.2365 65.8954 32.4471 74.2334 32.4471H80.7694L80.8075 28.9265C81.6061 29.631 82.5026 30.2431 83.5095 30.7538C85.7353 31.8839 88.3233 32.4489 91.2698 32.4489C94.2164 32.4489 96.8026 31.8839 99.0301 30.7538C101.256 29.6237 102.975 28.021 104.186 25.9401C105.398 23.861 106.004 21.4469 106.004 18.6959C106.004 15.945 105.398 13.5309 104.186 11.4518M94.5116 21.226C94.2164 21.9304 93.7908 22.4629 93.2348 22.8215C92.677 23.1819 92.0232 23.3612 91.2698 23.3612C90.5164 23.3612 89.8609 23.1819 89.3049 22.8215C88.7471 22.4611 88.3233 21.9304 88.0281 21.226C87.7329 20.5215 87.5862 19.6793 87.5862 18.6959C87.5862 17.7125 87.7329 16.8704 88.0281 16.1659C88.3233 15.4614 88.7471 14.9308 89.3049 14.5704C89.8609 14.21 90.5146 14.0307 91.2698 14.0307C92.025 14.0307 92.677 14.2118 93.2348 14.5704C93.7908 14.9308 94.2164 15.4632 94.5116 16.1659C94.8068 16.8704 94.9535 17.7125 94.9535 18.6959C94.9535 19.6793 94.8068 20.5215 94.5116 21.226Z" fill="black"/>
<path d="M46.3408 19.1559C46.3408 20.0669 46.1307 20.7786 45.7124 21.2893C45.2922 21.8 44.7181 22.0554 43.9883 22.0554C43.6569 22.0554 43.3617 22.0029 43.09 21.9105C43.1172 21.4741 43.1317 21.0249 43.1317 20.5613V0.418945H30.9144V20.6555C30.9144 21.6244 30.315 22.4502 29.4674 22.7889V20.6736L29.4438 20.6808C29.4583 20.3874 29.4674 20.0904 29.4674 19.788C29.4674 17.037 28.8607 14.6229 27.6509 12.5438C26.4393 10.4648 24.7207 8.86019 22.4949 7.7301C20.2673 6.60001 17.6812 6.03497 14.7346 6.03497C11.788 6.03497 9.20188 6.60001 6.9743 7.7301C4.74673 8.86019 3.02805 10.4648 1.81828 12.5438C0.604886 14.6247 0 17.0388 0 19.7898C0 22.5408 0.604886 24.9549 1.81647 27.0339C3.02805 29.113 4.74673 30.7176 6.97249 31.8477C9.19826 32.9778 11.7862 33.5428 14.7328 33.5428C15.6039 33.5428 16.4406 33.4921 17.2483 33.3943V33.7909C17.2483 35.0605 16.2197 36.0909 14.9483 36.0909H11.7989V45.5844H17.3298C25.6678 45.5844 29.4656 41.3737 29.4656 33.6968V32.4508H30.9959C36.5015 32.4508 40.0257 30.6144 41.7861 27.1553C42.6046 28.6204 43.6623 29.8085 44.9717 30.6995C46.6849 31.8658 48.6553 32.4489 50.8793 32.4489C52.5563 32.4489 53.9979 32.0578 55.2004 31.2736C56.4048 30.4894 57.3248 29.3593 57.9622 27.8815C58.5997 26.4037 58.9203 24.6452 58.9203 22.6023V9.80555H46.339V19.1559H46.3408ZM14.7346 24.455C13.9812 24.455 13.3256 24.2757 12.7696 23.9153C12.2118 23.5549 11.788 23.0243 11.4928 22.3198C11.1976 21.6153 11.0509 20.7732 11.0509 19.7898C11.0509 18.8064 11.1976 17.9643 11.4928 17.2598C11.788 16.5553 12.2118 16.0247 12.7696 15.6643C13.3256 15.3039 13.9794 15.1246 14.7346 15.1246C15.4898 15.1246 16.1418 15.3057 16.6996 15.6643C17.2556 16.0247 17.6812 16.5571 17.9764 17.2598C18.2716 17.9643 18.4182 18.8064 18.4182 19.7898C18.4182 20.7732 18.2716 21.6153 17.9764 22.3198C17.6812 23.0243 17.2556 23.5568 16.6996 23.9153C16.1418 24.2757 15.488 24.455 14.7346 24.455Z" fill="black"/>
<path d="M49.807 39.2297C49.807 41.4898 47.9742 43.3226 45.714 43.3226C43.4539 43.3226 41.6211 41.4898 41.6211 39.2297C41.6211 36.9695 43.4539 35.1367 45.714 35.1367C47.9742 35.1367 49.807 36.9695 49.807 39.2297Z" fill="black"/>
<path d="M58.9222 39.2297C58.9222 41.4898 57.0894 43.3226 54.8293 43.3226C52.5691 43.3226 50.7363 41.4898 50.7363 39.2297C50.7363 36.9695 52.5691 35.1367 54.8293 35.1367C57.0894 35.1367 58.9222 36.9695 58.9222 39.2297Z" fill="black"/>
</g>
<defs>
<clipPath id="clip0_829_4794">
<rect width="106" height="45.1618" fill="white" transform="translate(0 0.418945)"/>
</clipPath>
</defs>
</svg>
