<svg width="48" height="48" viewBox="0 0 48 48" fill="none" xmlns="http://www.w3.org/2000/svg">
<g id="Featured icon">
<rect width="48" height="48" rx="10" fill="#0C3E42"/>
<g id="live_help">
<mask id="mask0_3030_875" style="mask-type:alpha" maskUnits="userSpaceOnUse" x="12" y="12" width="24" height="24">
<rect id="Bounding box" x="12" y="12" width="24" height="24" fill="#D9D9D9"/>
</mask>
<g mask="url(#mask0_3030_875)">
<path id="live_help_2" d="M23.9 29C24.25 29 24.5458 28.8792 24.7875 28.6375C25.0292 28.3958 25.15 28.1 25.15 27.75C25.15 27.4 25.0292 27.1042 24.7875 26.8625C24.5458 26.6208 24.25 26.5 23.9 26.5C23.55 26.5 23.2542 26.6208 23.0125 26.8625C22.7708 27.1042 22.65 27.4 22.65 27.75C22.65 28.1 22.7708 28.3958 23.0125 28.6375C23.2542 28.8792 23.55 29 23.9 29ZM23 25.15H24.85C24.85 24.8667 24.8625 24.625 24.8875 24.425C24.9125 24.225 24.9667 24.0333 25.05 23.85C25.1333 23.6667 25.2375 23.4958 25.3625 23.3375C25.4875 23.1792 25.6667 22.9833 25.9 22.75C26.4833 22.1667 26.8958 21.6792 27.1375 21.2875C27.3792 20.8958 27.5 20.45 27.5 19.95C27.5 19.0667 27.2 18.3542 26.6 17.8125C26 17.2708 25.1917 17 24.175 17C23.2583 17 22.4792 17.225 21.8375 17.675C21.1958 18.125 20.75 18.75 20.5 19.55L22.15 20.2C22.2667 19.75 22.5 19.3875 22.85 19.1125C23.2 18.8375 23.6083 18.7 24.075 18.7C24.525 18.7 24.9 18.8208 25.2 19.0625C25.5 19.3042 25.65 19.625 25.65 20.025C25.65 20.3083 25.5583 20.6083 25.375 20.925C25.1917 21.2417 24.8833 21.5917 24.45 21.975C24.1667 22.2083 23.9375 22.4375 23.7625 22.6625C23.5875 22.8875 23.4417 23.125 23.325 23.375C23.2083 23.625 23.125 23.8875 23.075 24.1625C23.025 24.4375 23 24.7667 23 25.15ZM24 35L21 32H17C16.45 32 15.9792 31.8042 15.5875 31.4125C15.1958 31.0208 15 30.55 15 30V16C15 15.45 15.1958 14.9792 15.5875 14.5875C15.9792 14.1958 16.45 14 17 14H31C31.55 14 32.0208 14.1958 32.4125 14.5875C32.8042 14.9792 33 15.45 33 16V30C33 30.55 32.8042 31.0208 32.4125 31.4125C32.0208 31.8042 31.55 32 31 32H27L24 35ZM17 30H21.8L24 32.2L26.2 30H31V16H17V30Z" fill="white"/>
</g>
</g>
</g>
</svg>
