<svg width="23" height="15" viewBox="0 0 23 15" fill="none" xmlns="http://www.w3.org/2000/svg">
<path d="M11.3334 12C12.5834 12 13.6459 11.5625 14.5209 10.6875C15.3959 9.8125 15.8334 8.75 15.8334 7.5C15.8334 6.25 15.3959 5.1875 14.5209 4.3125C13.6459 3.4375 12.5834 3 11.3334 3C10.0834 3 9.02087 3.4375 8.14587 4.3125C7.27087 5.1875 6.83337 6.25 6.83337 7.5C6.83337 8.75 7.27087 9.8125 8.14587 10.6875C9.02087 11.5625 10.0834 12 11.3334 12ZM11.3334 10.2C10.5834 10.2 9.94587 9.9375 9.42087 9.4125C8.89587 8.8875 8.63337 8.25 8.63337 7.5C8.63337 6.75 8.89587 6.1125 9.42087 5.5875C9.94587 5.0625 10.5834 4.8 11.3334 4.8C12.0834 4.8 12.7209 5.0625 13.2459 5.5875C13.7709 6.1125 14.0334 6.75 14.0334 7.5C14.0334 8.25 13.7709 8.8875 13.2459 9.4125C12.7209 9.9375 12.0834 10.2 11.3334 10.2ZM11.3334 15C8.90004 15 6.68337 14.3208 4.68337 12.9625C2.68337 11.6042 1.23337 9.78333 0.333374 7.5C1.23337 5.21667 2.68337 3.39583 4.68337 2.0375C6.68337 0.679167 8.90004 0 11.3334 0C13.7667 0 15.9834 0.679167 17.9834 2.0375C19.9834 3.39583 21.4334 5.21667 22.3334 7.5C21.4334 9.78333 19.9834 11.6042 17.9834 12.9625C15.9834 14.3208 13.7667 15 11.3334 15ZM11.3334 13C13.2167 13 14.9459 12.5042 16.5209 11.5125C18.0959 10.5208 19.3 9.18333 20.1334 7.5C19.3 5.81667 18.0959 4.47917 16.5209 3.4875C14.9459 2.49583 13.2167 2 11.3334 2C9.45004 2 7.72087 2.49583 6.14587 3.4875C4.57087 4.47917 3.36671 5.81667 2.53337 7.5C3.36671 9.18333 4.57087 10.5208 6.14587 11.5125C7.72087 12.5042 9.45004 13 11.3334 13Z" fill="#1C1B1F"/>
</svg>
