<svg width="32" height="32" viewBox="0 0 32 32" fill="none" xmlns="http://www.w3.org/2000/svg">
<path d="M18.53 19.6069C19.2027 21.2869 20.1731 21.5385 20.6923 21.5385C21.2115 21.5385 22.1819 21.2869 22.8546 19.6069C23.2458 18.6285 23.4615 17.3477 23.4615 16C23.4615 14.6523 23.2458 13.3715 22.8546 12.3931C22.1819 10.7131 21.2115 10.4615 20.6923 10.4615C20.1731 10.4615 19.2027 10.7131 18.53 12.3931C18.1388 13.3715 17.9231 14.6523 17.9231 16C17.9231 17.3477 18.1388 18.6285 18.53 19.6069ZM20.6923 12.3308C20.9946 12.5685 21.6154 13.8308 21.6154 16C21.6154 18.1692 20.9946 19.4315 20.6923 19.6692C20.39 19.4315 19.7692 18.1692 19.7692 16C19.7692 13.8308 20.39 12.5685 20.6923 12.3308ZM28.0769 26.1538H23.9704C25.8985 24.0458 27.1538 20.3235 27.1538 16C27.1538 9.27077 24.1135 4 20.2308 4H11.9231C8.04038 4 5 9.27077 5 16C5 22.7292 8.04038 28 11.9231 28H28.0769C28.3217 28 28.5565 27.9027 28.7296 27.7296C28.9027 27.5565 29 27.3217 29 27.0769C29 26.8321 28.9027 26.5973 28.7296 26.4242C28.5565 26.2511 28.3217 26.1538 28.0769 26.1538ZM23.6623 8.60731C24.7227 10.5665 25.3077 13.1927 25.3077 16C25.3077 18.8073 24.7227 21.4335 23.6623 23.3927C22.6977 25.1731 21.4792 26.1538 20.2308 26.1538C18.9823 26.1538 17.7638 25.1731 16.7992 23.3927C15.7388 21.4335 15.1538 18.8073 15.1538 16C15.1538 13.1927 15.7388 10.5665 16.7992 8.60731C17.7638 6.82692 18.9823 5.84615 20.2308 5.84615C21.4792 5.84615 22.6977 6.82692 23.6623 8.60731ZM6.84615 16C6.84615 15.7115 6.85423 15.4231 6.86577 15.1415L10.5385 12.5188L13.3573 14.5323C13.325 15.0123 13.3077 15.5027 13.3077 16C13.3048 17.2967 13.4234 18.5908 13.6619 19.8654L11.075 18.0192C10.9184 17.9074 10.7309 17.8473 10.5385 17.8473C10.3461 17.8473 10.1585 17.9074 10.0019 18.0192L7.26269 19.9808C6.98089 18.6727 6.84123 17.3381 6.84615 16ZM8.49154 8.60731C9.45615 6.82692 10.6746 5.84615 11.9231 5.84615H16.4912C15.1181 7.34615 14.0865 9.66769 13.6065 12.4415L11.075 10.6335C10.9184 10.5216 10.7309 10.4615 10.5385 10.4615C10.3461 10.4615 10.1585 10.5216 10.0019 10.6335L7.13346 12.6827C7.40577 11.1538 7.865 9.76923 8.49154 8.60731ZM8.49154 23.3927C8.22597 22.8978 7.9969 22.3841 7.80615 21.8558L10.5385 19.9035L14.4546 22.7004C14.9854 24.085 15.6777 25.2642 16.4912 26.1538H11.9231C10.6746 26.1538 9.45615 25.1731 8.49154 23.3927Z" fill="black" stroke="black" stroke-width="0.6"/>
</svg>
