<svg width="26" height="26" viewBox="0 0 26 26" fill="none" xmlns="http://www.w3.org/2000/svg">
<path d="M22.4311 20.167C22.5763 17.8536 22.6526 15.4564 22.6526 13C22.6526 12.0052 22.6401 11.02 22.6156 10.0462C22.5983 9.3621 22.3765 8.69726 21.9715 8.14557C20.428 6.04293 19.1983 4.73573 17.1719 3.17177C16.615 2.74201 15.9316 2.50882 15.2284 2.49345C14.5232 2.47804 13.7867 2.47021 13 2.47021C10.6185 2.47021 8.69748 2.54195 6.70947 2.67863C5.01829 2.7949 3.67512 4.14121 3.56893 5.83305C3.42373 8.14639 3.34741 10.5436 3.34741 13C3.34741 15.4564 3.42373 17.8536 3.56893 20.167C3.67512 21.8588 5.01829 23.2051 6.70947 23.3214C8.69748 23.4581 10.6185 23.5298 13 23.5298C15.3815 23.5298 17.3026 23.4581 19.2906 23.3214C20.9818 23.2051 22.3249 21.8588 22.4311 20.167Z" stroke="#0C3E42" stroke-width="2.63249"/>
<path d="M7.73486 2.61373V12.6366C7.73486 13.4183 8.68007 13.8098 9.23287 13.257L11.2449 11.2451L13.2569 13.257C13.8097 13.8098 14.7549 13.4183 14.7549 12.6366V2.48433C14.1944 2.47496 13.6124 2.47021 12.9999 2.47021C11.0292 2.47021 9.37382 2.51933 7.73486 2.61373Z" stroke="#0C3E42" stroke-width="2.63249" stroke-linejoin="round"/>
</svg>
