<svg width="32" height="32" viewBox="0 0 32 32" fill="none" xmlns="http://www.w3.org/2000/svg">
<g id="icon">
<mask id="mask0_3690_1591" style="mask-type:alpha" maskUnits="userSpaceOnUse" x="0" y="0" width="32" height="32">
<rect id="Bounding box" width="32" height="32" fill="#D9D9D9"/>
</mask>
<g mask="url(#mask0_3690_1591)">
<path id="bathtub" d="M9.59169 12.4C8.81942 12.4 8.16106 12.125 7.61662 11.575C7.07217 11.0251 6.79995 10.364 6.79995 9.59169C6.79995 8.81942 7.07493 8.16106 7.62489 7.61662C8.17484 7.07217 8.83595 6.79995 9.60822 6.79995C10.3805 6.79995 11.0388 7.07493 11.5833 7.62488C12.1277 8.17484 12.4 8.83595 12.4 9.60822C12.4 10.3805 12.125 11.0388 11.575 11.5833C11.0251 12.1277 10.364 12.4 9.59169 12.4ZM7.99995 28.8C7.54662 28.8 7.16662 28.6466 6.85995 28.34C6.55329 28.0333 6.39995 27.6533 6.39995 27.2H5.59995C4.93995 27.2 4.37495 26.9652 3.90495 26.4958C3.43495 26.0263 3.19995 25.4619 3.19995 24.8027V18.8094C3.19995 18.4698 3.31495 18.1833 3.54495 17.95C3.77495 17.7166 4.05995 17.6 4.39995 17.6H7.19995V16.8C7.19995 16.0118 7.48328 15.3481 8.04995 14.8089C8.61662 14.2696 9.29995 14 10.1 14C10.4555 14 10.8 14.0611 11.1333 14.1833C11.4666 14.3055 11.7555 14.4888 12 14.7333L13.8666 16.4C14.1111 16.6 14.3388 16.8 14.55 17C14.7611 17.2 14.9777 17.4 15.2 17.6H24V6.93328C24 6.55551 23.8777 6.23884 23.6333 5.98328C23.3888 5.72773 23.0777 5.59995 22.7 5.59995C22.4111 5.59995 22.1555 5.68328 21.9333 5.84995C21.7111 6.01662 21.5 6.19995 21.3 6.39995L20.3 7.39995C20.4111 7.82306 20.4166 8.23995 20.3166 8.65062C20.2166 9.06129 20.0111 9.41106 19.7 9.69995L16.3 6.29995C16.5888 5.98884 16.9333 5.78328 17.3333 5.68328C17.7333 5.58328 18.1444 5.58884 18.5666 5.69995L19.9666 4.33328C20.3177 3.97773 20.7182 3.69995 21.1681 3.49995C21.6179 3.29995 22.0952 3.19995 22.6 3.19995C23.6666 3.19995 24.5666 3.57773 25.3 4.33328C26.0333 5.08884 26.4 5.99995 26.4 7.06662V17.6H27.5929C27.9309 17.6 28.2166 17.7151 28.45 17.9454C28.6833 18.1757 28.8 18.461 28.8 18.8014V24.8088C28.8 25.4696 28.565 26.0333 28.095 26.5C27.625 26.9666 27.06 27.2 26.4 27.2H25.6C25.6 27.6533 25.4466 28.0333 25.14 28.34C24.8333 28.6466 24.4533 28.8 24 28.8H7.99995ZM5.59995 24.8H26.4V20H5.59995V24.8Z" fill="#0C3E42"/>
</g>
</g>
</svg>
