<svg width="32" height="32" viewBox="0 0 32 32" fill="none" xmlns="http://www.w3.org/2000/svg">
<mask id="mask0_4934_3300" style="mask-type:alpha" maskUnits="userSpaceOnUse" x="0" y="0" width="32" height="32">
<rect width="32" height="32" fill="#D9D9D9"/>
</mask>
<g mask="url(#mask0_4934_3300)">
<path d="M24.25 5H8.15C7.51487 5 7 5.51487 7 6.15V26.85C7 27.4851 7.51487 28 8.15 28H24.25C24.8851 28 25.4 27.4851 25.4 26.85V6.15C25.4 5.51487 24.8851 5 24.25 5Z" stroke="black" stroke-width="2.2"/>
<path d="M7 9.6C7 9.905 7.12116 10.1975 7.33683 10.4132C7.55249 10.6288 7.845 10.75 8.15 10.75H24.25C24.555 10.75 24.8475 10.6288 25.0632 10.4132C25.2788 10.1975 25.4 9.905 25.4 9.6V6.15C25.4 5.845 25.2788 5.55249 25.0632 5.33683C24.8475 5.12116 24.555 5 24.25 5H8.15C7.845 5 7.55249 5.12116 7.33683 5.33683C7.12116 5.55249 7 5.845 7 6.15V9.6Z" stroke="black" stroke-width="2.2"/>
<path d="M10.45 9.0251C11.0851 9.0251 11.6 8.51023 11.6 7.8751C11.6 7.23997 11.0851 6.7251 10.45 6.7251C9.81486 6.7251 9.29999 7.23997 9.29999 7.8751C9.29999 8.51023 9.81486 9.0251 10.45 9.0251Z" fill="black"/>
<path d="M13.9 9.0251C14.5351 9.0251 15.05 8.51023 15.05 7.8751C15.05 7.23997 14.5351 6.7251 13.9 6.7251C13.2649 6.7251 12.75 7.23997 12.75 7.8751C12.75 8.51023 13.2649 9.0251 13.9 9.0251Z" fill="black"/>
<path d="M16.2 23.4001C18.4229 23.4001 20.225 21.598 20.225 19.3751C20.225 17.1522 18.4229 15.3501 16.2 15.3501C13.977 15.3501 12.175 17.1522 12.175 19.3751C12.175 21.598 13.977 23.4001 16.2 23.4001Z" stroke="black" stroke-width="2.2"/>
</g>
</svg>
