<svg width="32" height="32" viewBox="0 0 32 32" fill="none" xmlns="http://www.w3.org/2000/svg">
<g id="Events">
<mask id="mask0_3623_1664" style="mask-type:alpha" maskUnits="userSpaceOnUse" x="0" y="0" width="32" height="32">
<rect id="Bounding box" width="32" height="32" fill="#D9D9D9"/>
</mask>
<g mask="url(#mask0_3623_1664)">
<path id="confirmation_number" d="M5.33341 26.6666C4.60008 26.6666 3.9723 26.4055 3.45008 25.8833C2.92786 25.361 2.66675 24.7333 2.66675 23.9999V19.4999C2.66675 19.2555 2.74453 19.0444 2.90008 18.8666C3.05564 18.6888 3.25564 18.5777 3.50008 18.5333C4.03341 18.3555 4.4723 18.0333 4.81675 17.5666C5.16119 17.0999 5.33341 16.5777 5.33341 15.9999C5.33341 15.4221 5.16119 14.8999 4.81675 14.4333C4.4723 13.9666 4.03341 13.6444 3.50008 13.4666C3.25564 13.4221 3.05564 13.311 2.90008 13.1333C2.74453 12.9555 2.66675 12.7444 2.66675 12.4999V7.99992C2.66675 7.26659 2.92786 6.63881 3.45008 6.11659C3.9723 5.59436 4.60008 5.33325 5.33341 5.33325H26.6667C27.4001 5.33325 28.0279 5.59436 28.5501 6.11659C29.0723 6.63881 29.3334 7.26659 29.3334 7.99992V12.4999C29.3334 12.7444 29.2556 12.9555 29.1001 13.1333C28.9445 13.311 28.7445 13.4221 28.5001 13.4666C27.9667 13.6444 27.5279 13.9666 27.1834 14.4333C26.839 14.8999 26.6667 15.4221 26.6667 15.9999C26.6667 16.5777 26.839 17.0999 27.1834 17.5666C27.5279 18.0333 27.9667 18.3555 28.5001 18.5333C28.7445 18.5777 28.9445 18.6888 29.1001 18.8666C29.2556 19.0444 29.3334 19.2555 29.3334 19.4999V23.9999C29.3334 24.7333 29.0723 25.361 28.5501 25.8833C28.0279 26.4055 27.4001 26.6666 26.6667 26.6666H5.33341ZM5.33341 23.9999H26.6667V20.5999C25.8445 20.111 25.1945 19.461 24.7167 18.6499C24.239 17.8388 24.0001 16.9555 24.0001 15.9999C24.0001 15.0444 24.239 14.161 24.7167 13.3499C25.1945 12.5388 25.8445 11.8888 26.6667 11.3999V7.99992H5.33341V11.3999C6.15564 11.8888 6.80564 12.5388 7.28341 13.3499C7.76119 14.161 8.00008 15.0444 8.00008 15.9999C8.00008 16.9555 7.76119 17.8388 7.28341 18.6499C6.80564 19.461 6.15564 20.111 5.33341 20.5999V23.9999ZM16.0001 22.6666C16.3779 22.6666 16.6945 22.5388 16.9501 22.2833C17.2056 22.0277 17.3334 21.711 17.3334 21.3333C17.3334 20.9555 17.2056 20.6388 16.9501 20.3833C16.6945 20.1277 16.3779 19.9999 16.0001 19.9999C15.6223 19.9999 15.3056 20.1277 15.0501 20.3833C14.7945 20.6388 14.6667 20.9555 14.6667 21.3333C14.6667 21.711 14.7945 22.0277 15.0501 22.2833C15.3056 22.5388 15.6223 22.6666 16.0001 22.6666ZM16.0001 17.3333C16.3779 17.3333 16.6945 17.2055 16.9501 16.9499C17.2056 16.6944 17.3334 16.3777 17.3334 15.9999C17.3334 15.6221 17.2056 15.3055 16.9501 15.0499C16.6945 14.7944 16.3779 14.6666 16.0001 14.6666C15.6223 14.6666 15.3056 14.7944 15.0501 15.0499C14.7945 15.3055 14.6667 15.6221 14.6667 15.9999C14.6667 16.3777 14.7945 16.6944 15.0501 16.9499C15.3056 17.2055 15.6223 17.3333 16.0001 17.3333ZM16.0001 11.9999C16.3779 11.9999 16.6945 11.8721 16.9501 11.6166C17.2056 11.361 17.3334 11.0444 17.3334 10.6666C17.3334 10.2888 17.2056 9.97214 16.9501 9.71659C16.6945 9.46103 16.3779 9.33325 16.0001 9.33325C15.6223 9.33325 15.3056 9.46103 15.0501 9.71659C14.7945 9.97214 14.6667 10.2888 14.6667 10.6666C14.6667 11.0444 14.7945 11.361 15.0501 11.6166C15.3056 11.8721 15.6223 11.9999 16.0001 11.9999Z" fill="#0C3E42"/>
</g>
</g>
</svg>
