<svg width="32" height="32" viewBox="0 0 32 32" fill="none" xmlns="http://www.w3.org/2000/svg">
<g id="fashion">
<mask id="mask0_3620_1584" style="mask-type:alpha" maskUnits="userSpaceOnUse" x="0" y="0" width="32" height="32">
<rect id="Bounding box" width="32" height="32" fill="#D9D9D9"/>
</mask>
<g mask="url(#mask0_3620_1584)">
<path id="apparel" d="M8.76649 14.6334L7.39983 15.4334C7.11094 15.6112 6.81094 15.6556 6.49983 15.5667C6.18872 15.4778 5.94427 15.2889 5.76649 15L3.36649 10.8334C3.21094 10.5445 3.17205 10.2445 3.24983 9.93338C3.3276 9.62227 3.51094 9.37783 3.79983 9.20005L11.3998 4.80005H12.5998C12.8443 4.80005 13.0665 4.87783 13.2665 5.03338C13.4665 5.18894 13.6109 5.38894 13.6998 5.63338L13.7332 5.70005C13.9109 6.16672 14.2054 6.53338 14.6165 6.80005C15.0276 7.06672 15.4887 7.20005 15.9998 7.20005C16.5109 7.20005 16.972 7.06672 17.3832 6.80005C17.7943 6.53338 18.0887 6.16672 18.2665 5.70005L18.2998 5.63338C18.3887 5.38894 18.5387 5.18894 18.7498 5.03338C18.9609 4.87783 19.1887 4.80005 19.4332 4.80005H20.5998L28.1998 9.20005C28.4887 9.37783 28.6721 9.62227 28.7498 9.93338C28.8276 10.2445 28.7887 10.5445 28.6332 10.8334L26.2332 15C26.0554 15.2889 25.8109 15.4778 25.4998 15.5667C25.1887 15.6556 24.8887 15.6112 24.5998 15.4334L23.1998 14.6334V26.0001C23.1998 26.3334 23.0832 26.6167 22.8498 26.85C22.6165 27.0834 22.3332 27.2001 21.9998 27.2001H9.96649C9.63316 27.2001 9.34983 27.0834 9.11649 26.85C8.88316 26.6167 8.76649 26.3334 8.76649 26.0001V14.6334ZM11.1998 10.4667V24.8001H20.8332V10.4667L24.7665 12.7667L25.9665 10.6667L20.1332 7.30005C19.6887 8.01116 19.0998 8.57227 18.3665 8.98338C17.6332 9.39449 16.8443 9.60005 15.9998 9.60005C15.1554 9.60005 14.3665 9.39449 13.6332 8.98338C12.8998 8.57227 12.3109 8.01116 11.8665 7.30005L6.03316 10.6667L7.23316 12.7667L11.1998 10.4667Z" fill="#0C3E42"/>
</g>
</g>
</svg>
