<svg width="32" height="32" viewBox="0 0 32 32" fill="none" xmlns="http://www.w3.org/2000/svg">
<mask id="mask0_4524_3840" style="mask-type:alpha" maskUnits="userSpaceOnUse" x="0" y="0" width="32" height="32">
<rect width="32" height="32" fill="#D9D9D9"/>
</mask>
<g mask="url(#mask0_4524_3840)">
<path d="M7 9.11765C7 8.55601 7.22311 8.01738 7.62024 7.62024C8.01738 7.22311 8.55601 7 9.11765 7H19.7059C20.2675 7 20.8061 7.22311 21.2033 7.62024C21.6004 8.01738 21.8235 8.55601 21.8235 9.11765V11.2353C21.8235 11.7969 21.6004 12.3356 21.2033 12.7327C20.8061 13.1298 20.2675 13.3529 19.7059 13.3529H9.11765C8.55601 13.3529 8.01738 13.1298 7.62024 12.7327C7.22311 12.3356 7 11.7969 7 11.2353V9.11765Z" stroke="#1D1F3F" stroke-width="2" stroke-linecap="round" stroke-linejoin="round"/>
<path d="M21.8235 10.1765H22.8824C23.444 10.1765 23.9826 10.3996 24.3798 10.7968C24.7769 11.1939 25 11.7325 25 12.2942C25 13.6982 24.4422 15.0448 23.4494 16.0377C22.4566 17.0305 21.11 17.5883 19.7059 17.5883H14.4118V19.7059M12.2941 20.7647C12.2941 20.4839 12.4057 20.2146 12.6043 20.016C12.8028 19.8175 13.0721 19.7059 13.353 19.7059H15.4706C15.7514 19.7059 16.0207 19.8175 16.2193 20.016C16.4179 20.2146 16.5294 20.4839 16.5294 20.7647V25C16.5294 25.2809 16.4179 25.5502 16.2193 25.7487C16.0207 25.9473 15.7514 26.0589 15.4706 26.0589H13.353C13.0721 26.0589 12.8028 25.9473 12.6043 25.7487C12.4057 25.5502 12.2941 25.2809 12.2941 25V20.7647Z" stroke="#1D1F3F" stroke-width="2" stroke-linecap="round" stroke-linejoin="round"/>
</g>
</svg>
