<svg width="26" height="26" viewBox="0 0 26 26" fill="none" xmlns="http://www.w3.org/2000/svg">
<path d="M22.7074 13.5995C22.7074 16.1942 22.3701 19.2565 22.1091 21.8423C22.0241 22.6856 21.3542 23.3554 20.5092 23.4205C15.3785 23.8157 10.6214 23.8157 5.49071 23.4205C4.64563 23.3554 3.97582 22.6856 3.89073 21.8423C3.6298 19.2565 3.29248 16.1942 3.29248 13.5995H22.7074Z" stroke="#0C3E42" stroke-width="2.63249" stroke-linejoin="round"/>
<path d="M22.7074 13.5995C22.7074 11.5312 19.6381 7.13351 19.6381 7.13351L6.36182 7.13351C6.36182 7.13351 3.29248 11.5312 3.29248 13.5995H22.7074Z" stroke="#0C3E42" stroke-width="2.63249" stroke-linejoin="round"/>
<path d="M13.0094 2.28316C11.1799 2.28316 9.40039 2.36207 7.69438 2.42804C6.91526 2.45816 6.24031 2.99746 6.19584 3.7759C6.10392 5.38469 6.37968 7.13342 6.37968 7.13342L19.6392 7.13342C19.6392 7.13342 19.915 5.38469 19.823 3.7759C19.7786 2.99746 19.1036 2.45816 18.3245 2.42803C16.6185 2.36207 14.8389 2.28316 13.0094 2.28316Z" stroke="#0C3E42" stroke-width="2.63249" stroke-linejoin="round"/>
<path d="M19.6381 7.13342C19.6381 7.13342 22.7074 11.5311 22.7074 13.5994H15.2251C15.5485 11.2745 18.2631 7.13342 18.2631 7.13342H19.6381Z" stroke="#0C3E42" stroke-width="2.63249" stroke-linejoin="round"/>
<path d="M22.1793 21.1513C22.4267 18.7228 22.7074 15.9666 22.7074 13.5995L15.1937 13.5995C15.1937 16.0687 15.4828 18.9438 15.7375 21.4771C15.7446 21.5476 15.7893 22.0129 15.8561 22.7097C15.8835 22.9948 15.9146 23.3187 15.9483 23.6702C17.4484 23.6229 18.962 23.5397 20.5095 23.4205C21.3546 23.3554 22.0241 22.6852 22.1092 21.8419C22.1321 21.6152 22.1555 21.3848 22.1793 21.1513Z" stroke="#0C3E42" stroke-width="2.63249" stroke-linejoin="round"/>
</svg>
