<svg width="33" height="33" viewBox="0 0 33 33" fill="none" xmlns="http://www.w3.org/2000/svg">
<g id="icon">
<mask id="mask0_3707_1613" style="mask-type:alpha" maskUnits="userSpaceOnUse" x="0" y="0" width="33" height="33">
<rect id="Bounding box" x="0.185059" y="0.0656738" width="32" height="32" fill="#D9D9D9"/>
</mask>
<g mask="url(#mask0_3707_1613)">
<path id="chair" d="M6.91341 28.0876C6.53563 28.0876 6.21897 27.9599 5.96341 27.7043C5.70786 27.4488 5.58008 27.1321 5.58008 26.7543V25.421C4.46897 25.421 3.52452 25.0321 2.74674 24.2543C1.96897 23.4765 1.58008 22.5321 1.58008 21.421V14.7543C1.58008 13.6432 1.96897 12.6988 2.74674 11.921C3.52452 11.1432 4.46897 10.7543 5.58008 10.7543V8.08765C5.58008 6.97654 5.96897 6.03209 6.74674 5.25431C7.52452 4.47654 8.46897 4.08765 9.58008 4.08765H22.9134C24.0245 4.08765 24.969 4.47654 25.7467 5.25431C26.5245 6.03209 26.9134 6.97654 26.9134 8.08765V10.7543C28.0245 10.7543 28.969 11.1432 29.7467 11.921C30.5245 12.6988 30.9134 13.6432 30.9134 14.7543V21.421C30.9134 22.5321 30.5245 23.4765 29.7467 24.2543C28.969 25.0321 28.0245 25.421 26.9134 25.421V26.7543C26.9134 27.1321 26.7856 27.4488 26.5301 27.7043C26.2745 27.9599 25.9579 28.0876 25.5801 28.0876C25.2023 28.0876 24.8856 27.9599 24.6301 27.7043C24.3745 27.4488 24.2467 27.1321 24.2467 26.7543V25.421H8.24674V26.7543C8.24674 27.1321 8.11897 27.4488 7.86341 27.7043C7.60786 27.9599 7.29119 28.0876 6.91341 28.0876ZM5.58008 22.7543H26.9134C27.2912 22.7543 27.6079 22.6265 27.8634 22.371C28.119 22.1154 28.2467 21.7988 28.2467 21.421V14.7543C28.2467 14.3765 28.119 14.0599 27.8634 13.8043C27.6079 13.5488 27.2912 13.421 26.9134 13.421C26.5356 13.421 26.219 13.5488 25.9634 13.8043C25.7079 14.0599 25.5801 14.3765 25.5801 14.7543V20.0876H6.91341V14.7543C6.91341 14.3765 6.78563 14.0599 6.53008 13.8043C6.27452 13.5488 5.95786 13.421 5.58008 13.421C5.2023 13.421 4.88563 13.5488 4.63008 13.8043C4.37452 14.0599 4.24674 14.3765 4.24674 14.7543V21.421C4.24674 21.7988 4.37452 22.1154 4.63008 22.371C4.88563 22.6265 5.2023 22.7543 5.58008 22.7543ZM9.58008 17.421H22.9134V14.7543C22.9134 14.1543 23.0356 13.6099 23.2801 13.121C23.5245 12.6321 23.8467 12.1988 24.2467 11.821V8.08765C24.2467 7.70987 24.119 7.3932 23.8634 7.13765C23.6079 6.88209 23.2912 6.75431 22.9134 6.75431H9.58008C9.2023 6.75431 8.88563 6.88209 8.63008 7.13765C8.37452 7.3932 8.24674 7.70987 8.24674 8.08765V11.821C8.64675 12.1988 8.96897 12.6321 9.21341 13.121C9.45786 13.6099 9.58008 14.1543 9.58008 14.7543V17.421Z" fill="#0C3E42"/>
</g>
</g>
</svg>
