<svg width="32" height="32" viewBox="0 0 32 32" fill="none" xmlns="http://www.w3.org/2000/svg">
<g id="grocery">
<mask id="mask0_3623_1661" style="mask-type:alpha" maskUnits="userSpaceOnUse" x="0" y="0" width="32" height="32">
<rect id="Bounding box" width="32" height="32" fill="#D9D9D9"/>
</mask>
<g mask="url(#mask0_3623_1661)">
<path id="grocery_2" d="M21.3333 29.3334C19.1111 29.3334 17.2222 28.5556 15.6666 27.0001C14.1111 25.4445 13.3333 23.5556 13.3333 21.3334C13.3333 19.1112 14.1111 17.2223 15.6666 15.6667C17.2222 14.1112 19.1111 13.3334 21.3333 13.3334C23.5555 13.3334 25.4444 14.1112 27 15.6667C28.5555 17.2223 29.3333 19.1112 29.3333 21.3334C29.3333 23.5556 28.5555 25.4445 27 27.0001C25.4444 28.5556 23.5555 29.3334 21.3333 29.3334ZM21.3333 26.6667C22.8 26.6667 24.0555 26.1445 25.1 25.1001C26.1444 24.0556 26.6666 22.8001 26.6666 21.3334C26.6666 19.8667 26.1444 18.6112 25.1 17.5667C24.0555 16.5223 22.8 16.0001 21.3333 16.0001C19.8666 16.0001 18.6111 16.5223 17.5666 17.5667C16.5222 18.6112 16 19.8667 16 21.3334C16 22.8001 16.5222 24.0556 17.5666 25.1001C18.6111 26.1445 19.8666 26.6667 21.3333 26.6667ZM5.33329 26.6667C4.59996 26.6667 3.97218 26.4056 3.44996 25.8834C2.92774 25.3612 2.66663 24.7334 2.66663 24.0001V13.8667C2.66663 13.689 2.68329 13.5112 2.71663 13.3334C2.74996 13.1556 2.79996 12.9779 2.86663 12.8001L5.53329 6.66675H5.33329C4.95551 6.66675 4.63885 6.53897 4.38329 6.28341C4.12774 6.02786 3.99996 5.71119 3.99996 5.33341V4.00008C3.99996 3.6223 4.12774 3.30564 4.38329 3.05008C4.63885 2.79453 4.95551 2.66675 5.33329 2.66675H14.6666C15.0444 2.66675 15.3611 2.79453 15.6166 3.05008C15.8722 3.30564 16 3.6223 16 4.00008V5.33341C16 5.71119 15.8722 6.02786 15.6166 6.28341C15.3611 6.53897 15.0444 6.66675 14.6666 6.66675H14.4666L16.6666 11.7334C16.2444 11.9556 15.8444 12.189 15.4666 12.4334C15.0888 12.6779 14.7333 12.9556 14.4 13.2667L11.6 6.66675H8.39996L5.33329 13.8667V24.0001H11C11.1111 24.4667 11.2611 24.9279 11.45 25.3834C11.6388 25.839 11.8666 26.2667 12.1333 26.6667H5.33329ZM21.3333 12.0001C20.4 12.0001 19.6111 11.6779 18.9666 11.0334C18.3222 10.389 18 9.60008 18 8.66675C18 7.73341 18.3222 6.94453 18.9666 6.30008C19.6111 5.65564 20.4 5.33341 21.3333 5.33341V12.0001C21.3333 11.0667 21.6555 10.2779 22.3 9.63341C22.9444 8.98897 23.7333 8.66675 24.6666 8.66675C25.6 8.66675 26.3888 8.98897 27.0333 9.63341C27.6777 10.2779 28 11.0667 28 12.0001H21.3333Z" fill="#0C3E42"/>
</g>
</g>
</svg>
