<svg width="32" height="32" viewBox="0 0 32 32" fill="none" xmlns="http://www.w3.org/2000/svg">
<path fill-rule="evenodd" clip-rule="evenodd" d="M18.6667 4C19.0065 4.00038 19.3334 4.13051 19.5805 4.3638C19.8276 4.59709 19.9763 4.91594 19.9962 5.25519C20.0161 5.59445 19.9058 5.92851 19.6876 6.18911C19.4695 6.44971 19.1601 6.6172 18.8227 6.65733L18.6667 6.66667H17.3333V8H18.6693C18.9853 8.00133 19.3027 8.03333 19.616 8.07333L20.0707 8.14C20.5613 8.22267 21.1587 8.35333 21.8173 8.56133C23.3367 9.03815 24.7525 9.79719 25.9907 10.7987L26.116 10.6667L27.0587 9.724C27.2986 9.48487 27.6206 9.34604 27.9592 9.3357C28.2978 9.32536 28.6276 9.44429 28.8817 9.66833C29.1358 9.89238 29.2951 10.2047 29.3272 10.542C29.3593 10.8792 29.2619 11.216 29.0547 11.484L28.944 11.6093L28.0013 12.552V21.3333C28.0012 23.0513 27.3379 24.7029 26.1498 25.9437C24.9616 27.1845 23.3403 27.9188 21.624 27.9933L21.3333 28H10.6667C8.9487 27.9999 7.29711 27.3366 6.05629 26.1485C4.81546 24.9603 4.08121 23.339 4.00666 21.6227L3.99999 21.3333V12.552L3.05732 11.6093C2.81819 11.3694 2.67936 11.0474 2.66902 10.7088C2.65868 10.3702 2.77761 10.0404 3.00165 9.7863C3.2257 9.53221 3.53806 9.37293 3.87529 9.3408C4.21252 9.30868 4.54933 9.40612 4.81732 9.61333L4.94266 9.724L5.88532 10.6667C5.92799 10.7093 5.96888 10.7533 6.00799 10.7987C7.24609 9.79719 8.66194 9.03815 10.1813 8.56133C10.7534 8.38177 11.337 8.24101 11.928 8.14L12.3827 8.07333C12.5925 8.04528 12.8033 8.02438 13.0147 8.01067L13.3307 8H14.6667V6.66667H13.3333C12.9935 6.66629 12.6666 6.53616 12.4195 6.30287C12.1724 6.06958 12.0237 5.75073 12.0038 5.41147C11.9838 5.07222 12.0942 4.73816 12.3123 4.47756C12.5305 4.21695 12.8399 4.04947 13.1773 4.00933L13.3333 4H18.6667ZM25.3333 14.9467C19.3387 16.0133 13.5827 16.0667 7.61066 15.1067L6.66665 14.9467V21.3333C6.6666 22.3536 7.05642 23.3354 7.75637 24.0777C8.45631 24.82 9.41346 25.2668 10.432 25.3267L10.6667 25.3333H21.3333C22.3536 25.3334 23.3353 24.9436 24.0777 24.2436C24.82 23.5437 25.2668 22.5865 25.3267 21.568L25.3333 21.3333V14.9467ZM18.6613 10.6667L13.2747 10.668L13.0347 10.6853L12.6347 10.7307L12.292 10.784L12.1013 10.82L11.684 10.9107C10.4234 11.2075 9.23244 11.7464 8.17732 12.4973C13.3592 13.3295 18.6407 13.3295 23.8227 12.4973C22.9656 11.8886 22.018 11.4189 21.0147 11.1053C20.2613 10.8667 19.456 10.684 18.6613 10.6667Z" fill="black"/>
</svg>
