<svg width="32" height="32" viewBox="0 0 32 32" fill="none" xmlns="http://www.w3.org/2000/svg">
<g id="Jewelry">
<mask id="mask0_3623_1653" style="mask-type:alpha" maskUnits="userSpaceOnUse" x="0" y="0" width="32" height="32">
<rect id="Bounding box" width="32" height="32" fill="#D9D9D9"/>
</mask>
<g mask="url(#mask0_3623_1653)">
<path id="diamond" d="M16.0001 26.5C15.6223 26.5 15.2556 26.4167 14.9001 26.25C14.5445 26.0833 14.2334 25.8444 13.9667 25.5333L3.76675 13.3333C3.56675 13.0889 3.41675 12.8222 3.31675 12.5333C3.21675 12.2444 3.16675 11.9444 3.16675 11.6333C3.16675 11.4333 3.18341 11.2278 3.21675 11.0167C3.25008 10.8056 3.3223 10.6111 3.43341 10.4333L5.93341 5.46667C6.17786 5.02222 6.50564 4.66667 6.91675 4.4C7.32786 4.13333 7.78897 4 8.30008 4H23.7001C24.2112 4 24.6723 4.13333 25.0834 4.4C25.4945 4.66667 25.8223 5.02222 26.0667 5.46667L28.5667 10.4333C28.6779 10.6111 28.7501 10.8056 28.7834 11.0167C28.8167 11.2278 28.8334 11.4333 28.8334 11.6333C28.8334 11.9444 28.7834 12.2444 28.6834 12.5333C28.5834 12.8222 28.4334 13.0889 28.2334 13.3333L18.0334 25.5333C17.7667 25.8444 17.4556 26.0833 17.1001 26.25C16.7445 26.4167 16.3779 26.5 16.0001 26.5ZM12.8334 10.6667H19.1667L17.1667 6.66667H14.8334L12.8334 10.6667ZM14.6667 22.2333V13.3333H7.26675L14.6667 22.2333ZM17.3334 22.2333L24.7334 13.3333H17.3334V22.2333ZM22.1334 10.6667H25.6667L23.6667 6.66667H20.1334L22.1334 10.6667ZM6.33341 10.6667H9.86675L11.8667 6.66667H8.33342L6.33341 10.6667Z" fill="#0C3E42"/>
</g>
</g>
</svg>
