<svg width="32" height="32" viewBox="0 0 32 32" fill="none" xmlns="http://www.w3.org/2000/svg">
<g id="Kids">
<mask id="mask0_3620_1599" style="mask-type:alpha" maskUnits="userSpaceOnUse" x="0" y="0" width="32" height="32">
<rect id="Bounding box" width="32" height="32" fill="#D9D9D9"/>
</mask>
<g mask="url(#mask0_3620_1599)">
<path id="pediatrics" d="M10.6668 9.33341C10.2891 9.33341 9.97239 9.20564 9.71683 8.95008C9.46127 8.69453 9.3335 8.37786 9.3335 8.00008C9.3335 7.6223 9.46127 7.30564 9.71683 7.05008C9.97239 6.79453 10.2891 6.66675 10.6668 6.66675H14.6668V4.00008C14.6668 3.6223 14.7946 3.30564 15.0502 3.05008C15.3057 2.79453 15.6224 2.66675 16.0002 2.66675C16.3779 2.66675 16.6946 2.79453 16.9502 3.05008C17.2057 3.30564 17.3335 3.6223 17.3335 4.00008V6.66675H21.3335C21.7113 6.66675 22.0279 6.79453 22.2835 7.05008C22.5391 7.30564 22.6668 7.6223 22.6668 8.00008C22.6668 8.37786 22.5391 8.69453 22.2835 8.95008C22.0279 9.20564 21.7113 9.33341 21.3335 9.33341H10.6668ZM12.0002 29.3334C11.2668 29.3334 10.6391 29.0723 10.1168 28.5501C9.59461 28.0279 9.3335 27.4001 9.3335 26.6667V14.6667C9.3335 13.5556 9.72238 12.6112 10.5002 11.8334C11.2779 11.0556 12.2224 10.6667 13.3335 10.6667H18.6668C19.7779 10.6667 20.7224 11.0556 21.5002 11.8334C22.2779 12.6112 22.6668 13.5556 22.6668 14.6667V26.6667C22.6668 27.4001 22.4057 28.0279 21.8835 28.5501C21.3613 29.0723 20.7335 29.3334 20.0002 29.3334H12.0002ZM12.0002 26.6667H20.0002V14.6667C20.0002 14.289 19.8724 13.9723 19.6168 13.7167C19.3613 13.4612 19.0446 13.3334 18.6668 13.3334H13.3335C12.9557 13.3334 12.6391 13.4612 12.3835 13.7167C12.1279 13.9723 12.0002 14.289 12.0002 14.6667V16.0001H14.6668C15.0446 16.0001 15.3613 16.1279 15.6168 16.3834C15.8724 16.639 16.0002 16.9556 16.0002 17.3334C16.0002 17.7112 15.8724 18.0279 15.6168 18.2834C15.3613 18.539 15.0446 18.6667 14.6668 18.6667H12.0002V21.3334H14.6668C15.0446 21.3334 15.3613 21.4612 15.6168 21.7167C15.8724 21.9723 16.0002 22.289 16.0002 22.6667C16.0002 23.0445 15.8724 23.3612 15.6168 23.6167C15.3613 23.8723 15.0446 24.0001 14.6668 24.0001H12.0002V26.6667Z" fill="#0C3E42"/>
</g>
</g>
</svg>
