<svg width="32" height="32" viewBox="0 0 32 32" fill="none" xmlns="http://www.w3.org/2000/svg">
<path d="M26.667 8.00008H21.3337V5.33341C21.3337 3.86675 20.1337 2.66675 18.667 2.66675H13.3337C11.867 2.66675 10.667 3.86675 10.667 5.33341V8.00008H5.33366C3.86699 8.00008 2.66699 9.20008 2.66699 10.6667V26.6667C2.66699 28.1334 3.86699 29.3334 5.33366 29.3334H26.667C28.1337 29.3334 29.3337 28.1334 29.3337 26.6667V10.6667C29.3337 9.20008 28.1337 8.00008 26.667 8.00008ZM13.3337 5.33341H18.667V8.00008H13.3337V5.33341ZM26.667 26.6667H5.33366V10.6667H26.667V26.6667Z" fill="black"/>
<path d="M17.3337 13.3334H14.667V17.3334H10.667V20.0001H14.667V24.0001H17.3337V20.0001H21.3337V17.3334H17.3337V13.3334Z" fill="black"/>
</svg>
