<svg width="32" height="32" viewBox="0 0 32 32" fill="none" xmlns="http://www.w3.org/2000/svg">
<g id="Motorcycle">
<mask id="mask0_3620_1589" style="mask-type:alpha" maskUnits="userSpaceOnUse" x="0" y="0" width="32" height="32">
<rect id="Bounding box" width="32" height="32" fill="#D9D9D9"/>
</mask>
<g mask="url(#mask0_3620_1589)">
<path id="two_wheeler" d="M5.33333 25.3332C3.86667 25.3332 2.61111 24.8109 1.56667 23.7665C0.522222 22.7221 0 21.4665 0 19.9998C0 18.7332 0.405556 17.6109 1.21667 16.6332C2.02778 15.6554 3.06667 15.0443 4.33333 14.7998L3.4 13.9998H1C0.711111 13.9998 0.472222 13.9054 0.283333 13.7165C0.0944445 13.5276 0 13.2887 0 12.9998C0 12.7109 0.0944445 12.4721 0.283333 12.2832C0.472222 12.0943 0.711111 11.9998 1 11.9998H6L9.33333 13.9998L14.2 12.1665C14.3556 12.1221 14.5111 12.0832 14.6667 12.0498C14.8222 12.0165 14.9889 11.9998 15.1667 11.9998H18.8667L16.8 9.33317H14.6667C14.2889 9.33317 13.9722 9.20539 13.7167 8.94984C13.4611 8.69428 13.3333 8.37762 13.3333 7.99984C13.3333 7.62206 13.4611 7.30539 13.7167 7.04984C13.9722 6.79428 14.2889 6.6665 14.6667 6.6665H16.7667C17.1889 6.6665 17.5833 6.76095 17.95 6.94984C18.3167 7.13873 18.6222 7.38873 18.8667 7.69984L20.8667 10.2665L24.3667 8.49984C24.5889 8.38873 24.8056 8.39984 25.0167 8.53317C25.2278 8.6665 25.3333 8.85539 25.3333 9.09984V11.3332C25.3333 11.5109 25.2667 11.6665 25.1333 11.7998C25 11.9332 24.8444 11.9998 24.6667 11.9998H22.2667L24.6 15.0665C24.9333 14.9332 25.2722 14.8332 25.6167 14.7665C25.9611 14.6998 26.3111 14.6665 26.6667 14.6665C28.1333 14.6665 29.3889 15.1887 30.4333 16.2332C31.4778 17.2776 32 18.5332 32 19.9998C32 21.4665 31.4778 22.7221 30.4333 23.7665C29.3889 24.8109 28.1333 25.3332 26.6667 25.3332C25.2 25.3332 23.9444 24.8109 22.9 23.7665C21.8556 22.7221 21.3333 21.4665 21.3333 19.9998C21.3333 19.3998 21.4389 18.8165 21.65 18.2498C21.8611 17.6832 22.1556 17.1554 22.5333 16.6665L21.8667 15.8665L17.7333 22.0665C17.6222 22.2443 17.4667 22.3887 17.2667 22.4998C17.0667 22.6109 16.8556 22.6665 16.6333 22.6665H13.8333C13.6556 22.6665 13.4944 22.6387 13.35 22.5832C13.2056 22.5276 13.0778 22.4443 12.9667 22.3332L10.6667 20.3332C10.5556 21.7332 9.98889 22.9165 8.96667 23.8832C7.94444 24.8498 6.73333 25.3332 5.33333 25.3332ZM5.33333 22.6665C6.06667 22.6665 6.69444 22.4054 7.21667 21.8832C7.73889 21.3609 8 20.7332 8 19.9998C8 19.2665 7.73889 18.6387 7.21667 18.1165C6.69444 17.5943 6.06667 17.3332 5.33333 17.3332C4.6 17.3332 3.97222 17.5943 3.45 18.1165C2.92778 18.6387 2.66667 19.2665 2.66667 19.9998C2.66667 20.7332 2.92778 21.3609 3.45 21.8832C3.97222 22.4054 4.6 22.6665 5.33333 22.6665ZM26.6667 22.6665C27.4 22.6665 28.0278 22.4054 28.55 21.8832C29.0722 21.3609 29.3333 20.7332 29.3333 19.9998C29.3333 19.2665 29.0722 18.6387 28.55 18.1165C28.0278 17.5943 27.4 17.3332 26.6667 17.3332C25.9333 17.3332 25.3056 17.5943 24.7833 18.1165C24.2611 18.6387 24 19.2665 24 19.9998C24 20.7332 24.2611 21.3609 24.7833 21.8832C25.3056 22.4054 25.9333 22.6665 26.6667 22.6665ZM15.9333 19.9998L19.4667 14.6665H15.1333L10.3333 16.4665L14.3333 19.9998H15.9333Z" fill="#0C3E42"/>
</g>
</g>
</svg>
