<svg width="32" height="32" viewBox="0 0 32 32" fill="none" xmlns="http://www.w3.org/2000/svg">
<path d="M8.00033 25.3334C10.9458 25.3334 13.3337 22.9456 13.3337 20.0001C13.3337 17.0546 10.9458 14.6667 8.00033 14.6667C5.05481 14.6667 2.66699 17.0546 2.66699 20.0001C2.66699 22.9456 5.05481 25.3334 8.00033 25.3334Z" stroke="black" stroke-width="2.5" stroke-linecap="round" stroke-linejoin="round"/>
<path d="M24.0003 25.3334C26.9458 25.3334 29.3337 22.9456 29.3337 20.0001C29.3337 17.0546 26.9458 14.6667 24.0003 14.6667C21.0548 14.6667 18.667 17.0546 18.667 20.0001C18.667 22.9456 21.0548 25.3334 24.0003 25.3334Z" stroke="black" stroke-width="2.5" stroke-linecap="round" stroke-linejoin="round"/>
<path d="M18.6673 20.0001C18.6673 19.2928 18.3864 18.6146 17.8863 18.1145C17.3862 17.6144 16.7079 17.3334 16.0007 17.3334C15.2934 17.3334 14.6151 17.6144 14.115 18.1145C13.6149 18.6146 13.334 19.2928 13.334 20.0001M3.33398 17.3334L6.66732 9.33341C7.60065 7.60008 8.53398 6.66675 10.6673 6.66675M28.6673 17.3334L25.334 9.33341C24.4007 7.60008 23.334 6.66675 21.334 6.66675" stroke="black" stroke-width="2.5" stroke-linecap="round" stroke-linejoin="round"/>
</svg>
