<svg width="32" height="32" viewBox="0 0 32 32" fill="none" xmlns="http://www.w3.org/2000/svg">
<path d="M15.9993 2.66675C8.63935 2.66675 2.66602 8.64008 2.66602 16.0001C2.66602 23.3601 8.63935 29.3334 15.9993 29.3334C23.3593 29.3334 29.3327 23.3601 29.3327 16.0001C29.3327 8.64008 23.3593 2.66675 15.9993 2.66675ZM17.3327 7.06675L19.1327 5.80008C21.5593 6.54675 23.626 8.14675 24.9727 10.2534L24.4527 12.0401L22.6527 12.6534L17.3327 8.93341V7.06675ZM12.866 5.80008L14.666 7.06675V8.93341L9.34602 12.6534L7.54602 12.0401L7.02602 10.2534C8.37268 8.16008 10.4393 6.56008 12.866 5.80008ZM9.43935 22.8134L7.91935 22.9467C6.30602 21.0801 5.33268 18.6534 5.33268 16.0001C5.33268 15.8401 5.34602 15.6934 5.35935 15.5334L6.69268 14.5601L8.53268 15.2001L10.4793 20.9867L9.43935 22.8134ZM19.3327 26.1201C18.2793 26.4667 17.1593 26.6667 15.9993 26.6667C14.8393 26.6667 13.7193 26.4667 12.666 26.1201L11.746 24.1334L12.5993 22.6667H19.4127L20.266 24.1467L19.3327 26.1201ZM19.026 20.0001H12.9727L11.1727 14.6401L15.9993 11.2534L20.8393 14.6401L19.026 20.0001ZM24.0793 22.9467L22.5593 22.8134L21.506 20.9867L23.4527 15.2001L25.306 14.5734L26.6393 15.5467C26.6527 15.6934 26.666 15.8401 26.666 16.0001C26.666 18.6534 25.6927 21.0801 24.0793 22.9467Z" fill="black"/>
</svg>
