<svg width="24" height="24" viewBox="0 0 24 24" fill="none" xmlns="http://www.w3.org/2000/svg">
<path d="M22.0843 22.5168H21.3086C20.4857 22.5168 19.6964 22.1899 19.1145 21.608C18.5326 21.0261 18.2057 20.2369 18.2057 19.4139C18.2057 20.2369 17.8788 21.0261 17.2969 21.608C16.715 22.1899 15.9258 22.5168 15.1029 22.5168C14.28 22.5168 13.4907 22.1899 12.9088 21.608C12.3269 21.0261 12 20.2369 12 19.4139C12 20.2369 11.6731 21.0261 11.0912 21.608C10.5093 22.1899 9.72011 22.5168 8.89718 22.5168C8.07426 22.5168 7.28503 22.1899 6.70314 21.608C6.12124 21.0261 5.79433 20.2369 5.79433 19.4139C5.79433 20.2369 5.46743 21.0261 4.88553 21.608C4.30363 22.1899 3.51441 22.5168 2.69148 22.5168H1.91577" stroke="#0C3E42" stroke-width="2" stroke-linecap="round" stroke-linejoin="round"/>
<path d="M16.8792 15.9124C16.0512 14.9057 15.0105 14.095 13.8319 13.5383C12.6533 12.9817 11.3661 12.693 10.0627 12.693C8.75922 12.693 7.47196 12.9817 6.29337 13.5383C5.11477 14.095 4.07409 14.9057 3.24609 15.9124" stroke="#0C3E42" stroke-width="2" stroke-linecap="round" stroke-linejoin="round"/>
<path d="M11.2522 12.7774C11.3487 9.14408 12.458 5.83226 14.8695 4.64258" stroke="#0C3E42" stroke-width="2" stroke-linecap="round" stroke-linejoin="round"/>
<path d="M10.0627 1.58805C11.1049 1.38284 12.1861 1.58525 13.0834 2.15356C13.9807 2.72187 14.6258 3.61277 14.8858 4.64264" stroke="#0C3E42" stroke-width="2" stroke-linecap="round" stroke-linejoin="round"/>
<path d="M20.7537 5.23744C20.0138 4.43847 19.0076 3.93714 17.9241 3.82761C16.8407 3.71808 15.7545 4.00789 14.8696 4.6426" stroke="#0C3E42" stroke-width="2" stroke-linecap="round" stroke-linejoin="round"/>
<path d="M8.96948 6.3629C9.59945 5.43479 10.5332 4.75528 11.6101 4.44132C12.687 4.12735 13.8396 4.19855 14.8697 4.64268C15.9029 4.89536 16.7974 5.53972 17.3644 6.43966C17.9313 7.33961 18.1263 8.42468 17.9082 9.46571" stroke="#0C3E42" stroke-width="2" stroke-linecap="round" stroke-linejoin="round"/>
</svg>
