<svg width="32" height="32" viewBox="0 0 32 32" fill="none" xmlns="http://www.w3.org/2000/svg">
<path d="M20.0004 5.33341L16.0004 8.00008L12.0004 5.33341M20.0004 5.33341C20.783 6.01208 22.5737 7.05741 22.6617 8.19475C22.7017 8.68675 22.4964 8.95608 22.083 9.49475C21.1844 10.6694 20.1604 11.3601 20.1604 13.3334H11.8404C11.8404 11.3614 10.8164 10.6694 9.91769 9.49475C9.50569 8.95608 9.29902 8.68808 9.33769 8.19475C9.42702 7.05741 11.219 6.01341 12.0004 5.33341M20.0004 5.33341V2.66675M12.0004 5.33341V2.66675M26.4844 23.7441C25.5457 20.1574 23.155 16.8667 21.575 14.9827C20.4417 13.6307 19.6057 13.3334 17.8284 13.3334H14.1737C12.395 13.3334 11.559 13.6307 10.4257 14.9827C8.84569 16.8667 6.45502 20.1561 5.51636 23.7441C4.94302 25.9334 5.72169 27.1321 7.84969 27.9067C9.76036 28.6027 12.5817 29.3334 16.0004 29.3334C19.419 29.3334 22.239 28.6027 24.151 27.9067C26.279 27.1334 27.0577 25.9334 26.4844 23.7441Z" stroke="black" stroke-width="2.5" stroke-linecap="round" stroke-linejoin="round"/>
<path d="M18.667 20C18.667 20 21.3337 24 21.3337 28.6667M13.3337 20C13.3337 20 10.667 24 10.667 28.6667" stroke="black" stroke-width="2.5" stroke-linecap="round" stroke-linejoin="round"/>
</svg>
